<mxfile host="Electron" agent="Mozilla/5.0 (Windows NT 10.0; Win64; x64) AppleWebKit/537.36 (KHTML, like Gecko) draw.io/28.0.6 Chrome/138.0.7204.100 Electron/37.2.3 Safari/537.36" version="28.0.6">
  <diagram name="Pagina-1" id="SQNyIROabUt-RiWxWTcj">
    <mxGraphModel dx="14660" dy="9150" grid="1" gridSize="10" guides="1" tooltips="1" connect="1" arrows="1" fold="1" page="0" pageScale="1" pageWidth="827" pageHeight="1169" math="0" shadow="0">
      <root>
        <mxCell id="0" />
        <mxCell id="1" parent="0" />
        <mxCell id="6t0K0k1m3wz6Nv79OAPZ-224" value="" style="endArrow=none;dashed=1;html=1;rounded=0;entryX=0.5;entryY=1;entryDx=0;entryDy=0;" edge="1" parent="1" target="6t0K0k1m3wz6Nv79OAPZ-177">
          <mxGeometry width="50" height="50" relative="1" as="geometry">
            <mxPoint x="760" y="6680" as="sourcePoint" />
            <mxPoint x="140" y="1618" as="targetPoint" />
          </mxGeometry>
        </mxCell>
        <mxCell id="77gOGScripnuddrP19CJ-1" value="aJButton" style="whiteSpace=wrap;html=1;aspect=fixed;" parent="1" vertex="1">
          <mxGeometry x="-120" y="-120" width="160" height="160" as="geometry" />
        </mxCell>
        <mxCell id="77gOGScripnuddrP19CJ-2" value="" style="rounded=0;whiteSpace=wrap;html=1;" parent="1" vertex="1">
          <mxGeometry x="-80" y="40" width="80" height="6560" as="geometry" />
        </mxCell>
        <mxCell id="77gOGScripnuddrP19CJ-3" value="aSearchFlightPanel" style="whiteSpace=wrap;html=1;aspect=fixed;" parent="1" vertex="1">
          <mxGeometry x="361" y="-120" width="160" height="160" as="geometry" />
        </mxCell>
        <mxCell id="77gOGScripnuddrP19CJ-4" value="" style="rounded=0;whiteSpace=wrap;html=1;perimeterSpacing=0;" parent="1" vertex="1">
          <mxGeometry x="400" y="200" width="80" height="6360" as="geometry" />
        </mxCell>
        <mxCell id="77gOGScripnuddrP19CJ-5" value="" style="endArrow=classic;html=1;rounded=0;fontFamily=Helvetica;fontSize=12;fontColor=default;entryX=0;entryY=0;entryDx=0;entryDy=0;" parent="1" target="77gOGScripnuddrP19CJ-4" edge="1">
          <mxGeometry width="50" height="50" relative="1" as="geometry">
            <mxPoint y="200" as="sourcePoint" />
            <mxPoint x="310" y="180" as="targetPoint" />
          </mxGeometry>
        </mxCell>
        <mxCell id="77gOGScripnuddrP19CJ-6" value="" style="endArrow=none;dashed=1;html=1;rounded=0;fontFamily=Helvetica;fontSize=12;fontColor=default;entryX=0.5;entryY=1;entryDx=0;entryDy=0;exitX=0.5;exitY=0;exitDx=0;exitDy=0;" parent="1" source="77gOGScripnuddrP19CJ-4" target="77gOGScripnuddrP19CJ-3" edge="1">
          <mxGeometry width="50" height="50" relative="1" as="geometry">
            <mxPoint x="300" y="200" as="sourcePoint" />
            <mxPoint x="350" y="150" as="targetPoint" />
          </mxGeometry>
        </mxCell>
        <mxCell id="77gOGScripnuddrP19CJ-7" value="&lt;div style=&quot;color: rgb(8, 8, 8);&quot;&gt;&lt;pre style=&quot;font-family: &amp;quot;JetBrains Mono&amp;quot;, monospace;&quot;&gt;&lt;span&gt;executeResearch(&lt;span style=&quot;color: rgb(133, 22, 145);&quot;&gt;callingObjects&lt;/span&gt;, &lt;span style=&quot;color: rgb(133, 22, 145);&quot;&gt;controller&lt;/span&gt;, &lt;span style=&quot;color: rgb(135, 16, 148);&quot;&gt;searchButton&lt;/span&gt;)&lt;/span&gt;&lt;/pre&gt;&lt;/div&gt;" style="text;html=1;align=center;verticalAlign=middle;whiteSpace=wrap;rounded=0;" parent="1" vertex="1">
          <mxGeometry y="170" width="400" height="30" as="geometry" />
        </mxCell>
        <mxCell id="77gOGScripnuddrP19CJ-8" value="aController" style="whiteSpace=wrap;html=1;aspect=fixed;" parent="1" vertex="1">
          <mxGeometry x="680" y="-120" width="160" height="160" as="geometry" />
        </mxCell>
        <mxCell id="77gOGScripnuddrP19CJ-9" value="" style="rounded=0;whiteSpace=wrap;html=1;" parent="1" vertex="1">
          <mxGeometry x="720" y="280" width="80" height="80" as="geometry" />
        </mxCell>
        <mxCell id="77gOGScripnuddrP19CJ-11" value="" style="endArrow=none;dashed=1;html=1;rounded=0;entryX=0.5;entryY=1;entryDx=0;entryDy=0;exitX=0.5;exitY=0;exitDx=0;exitDy=0;" parent="1" source="77gOGScripnuddrP19CJ-9" target="77gOGScripnuddrP19CJ-8" edge="1">
          <mxGeometry width="50" height="50" relative="1" as="geometry">
            <mxPoint x="440" y="220" as="sourcePoint" />
            <mxPoint x="490" y="170" as="targetPoint" />
          </mxGeometry>
        </mxCell>
        <mxCell id="77gOGScripnuddrP19CJ-12" value="" style="endArrow=classic;html=1;rounded=0;entryX=0;entryY=0;entryDx=0;entryDy=0;" parent="1" edge="1" target="77gOGScripnuddrP19CJ-9">
          <mxGeometry width="50" height="50" relative="1" as="geometry">
            <mxPoint x="480" y="280" as="sourcePoint" />
            <mxPoint x="680" y="280" as="targetPoint" />
          </mxGeometry>
        </mxCell>
        <mxCell id="77gOGScripnuddrP19CJ-13" value="&lt;div style=&quot;background-color:#ffffff;color:#080808&quot;&gt;&lt;pre style=&quot;font-family:&#39;JetBrains Mono&#39;,monospace;font-size:9,8pt;&quot;&gt;setErrorButton(&lt;span style=&quot;color:#000000;&quot;&gt;searchButton&lt;/span&gt;)&lt;/pre&gt;&lt;/div&gt;" style="text;html=1;align=center;verticalAlign=middle;whiteSpace=wrap;rounded=0;" parent="1" vertex="1">
          <mxGeometry x="500" y="250" width="200" height="30" as="geometry" />
        </mxCell>
        <mxCell id="6t0K0k1m3wz6Nv79OAPZ-1" value="" style="endArrow=classic;html=1;rounded=0;exitX=0;exitY=1;exitDx=0;exitDy=0;dashed=1;" edge="1" parent="1" source="77gOGScripnuddrP19CJ-9">
          <mxGeometry width="50" height="50" relative="1" as="geometry">
            <mxPoint x="680" y="360" as="sourcePoint" />
            <mxPoint x="480" y="360" as="targetPoint" />
          </mxGeometry>
        </mxCell>
        <mxCell id="6t0K0k1m3wz6Nv79OAPZ-2" value="void" style="text;html=1;align=center;verticalAlign=middle;whiteSpace=wrap;rounded=0;fontFamily=Helvetica;fontSize=12;fontColor=default;" vertex="1" parent="1">
          <mxGeometry x="560" y="330" width="80" height="30" as="geometry" />
        </mxCell>
        <mxCell id="6t0K0k1m3wz6Nv79OAPZ-3" value="&lt;div&gt;&lt;span style=&quot;background-color: transparent; color: light-dark(rgb(0, 0, 0), rgb(255, 255, 255));&quot;&gt;[flag]&lt;/span&gt;&lt;/div&gt;" style="text;whiteSpace=wrap;html=1;align=center;" vertex="1" parent="1">
          <mxGeometry x="400" y="425" width="80" height="30" as="geometry" />
        </mxCell>
        <mxCell id="6t0K0k1m3wz6Nv79OAPZ-4" value="" style="shape=card;whiteSpace=wrap;html=1;rounded=0;strokeColor=default;align=center;verticalAlign=middle;fontFamily=Helvetica;fontSize=12;fontColor=default;fillColor=default;rotation=-180;size=20;" vertex="1" parent="1">
          <mxGeometry x="200" y="400" width="115" height="80" as="geometry" />
        </mxCell>
        <mxCell id="6t0K0k1m3wz6Nv79OAPZ-5" value="ALT" style="text;html=1;align=center;verticalAlign=middle;whiteSpace=wrap;rounded=0;fontFamily=Helvetica;fontSize=12;fontColor=default;" vertex="1" parent="1">
          <mxGeometry x="227.5" y="425" width="60" height="30" as="geometry" />
        </mxCell>
        <mxCell id="6t0K0k1m3wz6Nv79OAPZ-7" value="&lt;div style=&quot;color: rgb(8, 8, 8);&quot;&gt;&lt;pre style=&quot;font-family: &amp;quot;JetBrains Mono&amp;quot;, monospace; margin-top: 12px;&quot;&gt;&lt;span&gt;&lt;span style=&quot;color: rgb(0, 51, 179);&quot;&gt;new &lt;/span&gt;FloatingMessage(&lt;span style=&quot;color: rgb(6, 125, 23);&quot;&gt;&quot;Se si specifica una cittÃ , vanno specificate entrambe!&quot;&lt;/span&gt;, &lt;span style=&quot;color: rgb(0, 0, 0);&quot;&gt;searchButton&lt;/span&gt;, &lt;span style=&quot;color: rgb(0, 0, 0);&quot;&gt;FloatingMessage&lt;/span&gt;.&lt;span style=&quot;color: rgb(135, 16, 148); font-style: italic;&quot;&gt;ERROR_MESSAGE&lt;/span&gt;)&lt;/span&gt;&lt;/pre&gt;&lt;/div&gt;" style="text;whiteSpace=wrap;html=1;align=center;" vertex="1" parent="1">
          <mxGeometry x="480" y="480" width="840" height="40" as="geometry" />
        </mxCell>
        <mxCell id="6t0K0k1m3wz6Nv79OAPZ-8" value="aFloatingMessage" style="whiteSpace=wrap;html=1;aspect=fixed;" vertex="1" parent="1">
          <mxGeometry x="1320" y="440" width="160" height="160" as="geometry" />
        </mxCell>
        <mxCell id="6t0K0k1m3wz6Nv79OAPZ-9" value="" style="endArrow=classic;html=1;rounded=0;entryX=1;entryY=1;entryDx=0;entryDy=0;" edge="1" parent="1" target="6t0K0k1m3wz6Nv79OAPZ-7">
          <mxGeometry width="50" height="50" relative="1" as="geometry">
            <mxPoint x="480" y="520" as="sourcePoint" />
            <mxPoint x="1270" y="520" as="targetPoint" />
          </mxGeometry>
        </mxCell>
        <mxCell id="6t0K0k1m3wz6Nv79OAPZ-11" value="" style="rounded=0;whiteSpace=wrap;html=1;" vertex="1" parent="1">
          <mxGeometry x="1360" y="600" width="80" height="680" as="geometry" />
        </mxCell>
        <mxCell id="6t0K0k1m3wz6Nv79OAPZ-12" value="" style="rounded=0;whiteSpace=wrap;html=1;" vertex="1" parent="1">
          <mxGeometry x="1410" y="680" width="70" height="80" as="geometry" />
        </mxCell>
        <mxCell id="6t0K0k1m3wz6Nv79OAPZ-13" value="" style="endArrow=classic;html=1;rounded=0;" edge="1" parent="1">
          <mxGeometry width="50" height="50" relative="1" as="geometry">
            <mxPoint x="1440" y="640" as="sourcePoint" />
            <mxPoint x="1480" y="680" as="targetPoint" />
            <Array as="points">
              <mxPoint x="1520" y="640" />
              <mxPoint x="1520" y="680" />
            </Array>
          </mxGeometry>
        </mxCell>
        <mxCell id="6t0K0k1m3wz6Nv79OAPZ-14" value="&lt;div style=&quot;color: rgb(8, 8, 8);&quot;&gt;&lt;pre style=&quot;font-family: &amp;quot;JetBrains Mono&amp;quot;, monospace;&quot;&gt;&lt;span&gt;setWindow(&lt;span style=&quot;color: rgb(0, 0, 0);&quot;&gt;callingButton&lt;/span&gt;)&lt;/span&gt;&lt;/pre&gt;&lt;/div&gt;" style="text;whiteSpace=wrap;html=1;align=center;" vertex="1" parent="1">
          <mxGeometry x="1520" y="640" width="170" height="40" as="geometry" />
        </mxCell>
        <mxCell id="6t0K0k1m3wz6Nv79OAPZ-15" value="" style="endArrow=classic;html=1;rounded=0;dashed=1;" edge="1" parent="1">
          <mxGeometry width="50" height="50" relative="1" as="geometry">
            <mxPoint x="1480" y="760" as="sourcePoint" />
            <mxPoint x="1440" y="800" as="targetPoint" />
            <Array as="points">
              <mxPoint x="1520" y="760" />
              <mxPoint x="1520" y="800" />
            </Array>
          </mxGeometry>
        </mxCell>
        <mxCell id="6t0K0k1m3wz6Nv79OAPZ-17" value="void" style="text;html=1;align=center;verticalAlign=middle;whiteSpace=wrap;rounded=0;fontFamily=Helvetica;fontSize=12;fontColor=default;" vertex="1" parent="1">
          <mxGeometry x="1520" y="770" width="40" height="30" as="geometry" />
        </mxCell>
        <mxCell id="6t0K0k1m3wz6Nv79OAPZ-18" value="" style="rounded=0;whiteSpace=wrap;html=1;" vertex="1" parent="1">
          <mxGeometry x="1410" y="880" width="70" height="200" as="geometry" />
        </mxCell>
        <mxCell id="6t0K0k1m3wz6Nv79OAPZ-19" value="" style="endArrow=classic;html=1;rounded=0;" edge="1" parent="1">
          <mxGeometry width="50" height="50" relative="1" as="geometry">
            <mxPoint x="1440" y="840" as="sourcePoint" />
            <mxPoint x="1480" y="880" as="targetPoint" />
            <Array as="points">
              <mxPoint x="1520" y="840" />
              <mxPoint x="1520" y="880" />
            </Array>
          </mxGeometry>
        </mxCell>
        <mxCell id="6t0K0k1m3wz6Nv79OAPZ-20" value="&lt;div style=&quot;color: rgb(8, 8, 8);&quot;&gt;&lt;pre style=&quot;font-family: &amp;quot;JetBrains Mono&amp;quot;, monospace;&quot;&gt;&lt;font color=&quot;#080808&quot;&gt;setPanel(&lt;/font&gt;msg, messageType&lt;font color=&quot;#080808&quot;&gt;)&lt;/font&gt;&lt;/pre&gt;&lt;/div&gt;" style="text;whiteSpace=wrap;html=1;align=center;" vertex="1" parent="1">
          <mxGeometry x="1520" y="840" width="180" height="40" as="geometry" />
        </mxCell>
        <mxCell id="6t0K0k1m3wz6Nv79OAPZ-21" value="" style="endArrow=classic;html=1;rounded=0;dashed=1;" edge="1" parent="1">
          <mxGeometry width="50" height="50" relative="1" as="geometry">
            <mxPoint x="1480" y="1080" as="sourcePoint" />
            <mxPoint x="1440" y="1120" as="targetPoint" />
            <Array as="points">
              <mxPoint x="1520" y="1080" />
              <mxPoint x="1520" y="1120" />
            </Array>
          </mxGeometry>
        </mxCell>
        <mxCell id="6t0K0k1m3wz6Nv79OAPZ-22" value="void" style="text;html=1;align=center;verticalAlign=middle;whiteSpace=wrap;rounded=0;fontFamily=Helvetica;fontSize=12;fontColor=default;" vertex="1" parent="1">
          <mxGeometry x="1520" y="1090" width="40" height="30" as="geometry" />
        </mxCell>
        <mxCell id="6t0K0k1m3wz6Nv79OAPZ-24" value="aRoundedPanel" style="whiteSpace=wrap;html=1;aspect=fixed;" vertex="1" parent="1">
          <mxGeometry x="1800" y="920" width="160" height="160" as="geometry" />
        </mxCell>
        <mxCell id="6t0K0k1m3wz6Nv79OAPZ-25" value="" style="endArrow=classic;html=1;rounded=0;exitX=1.03;exitY=0.6;exitDx=0;exitDy=0;exitPerimeter=0;entryX=0;entryY=0.5;entryDx=0;entryDy=0;" edge="1" parent="1" target="6t0K0k1m3wz6Nv79OAPZ-24">
          <mxGeometry width="50" height="50" relative="1" as="geometry">
            <mxPoint x="1480" y="999.8600000000001" as="sourcePoint" />
            <mxPoint x="1797.9" y="999.8600000000001" as="targetPoint" />
          </mxGeometry>
        </mxCell>
        <mxCell id="6t0K0k1m3wz6Nv79OAPZ-28" value="&lt;div style=&quot;color: rgb(8, 8, 8);&quot;&gt;&lt;pre style=&quot;font-family: &amp;quot;JetBrains Mono&amp;quot;, monospace;&quot;&gt;&lt;div style=&quot;background-color: rgb(255, 255, 255);&quot;&gt;&lt;pre style=&quot;font-family:&#39;JetBrains Mono&#39;,monospace;font-size:9,8pt;&quot;&gt;&lt;span style=&quot;color:#0033b3;&quot;&gt;new &lt;/span&gt;RoundedPanel(&lt;span style=&quot;color:#0033b3;&quot;&gt;new &lt;/span&gt;BorderLayout())&lt;/pre&gt;&lt;/div&gt;&lt;/pre&gt;&lt;/div&gt;" style="text;html=1;align=center;verticalAlign=middle;whiteSpace=wrap;rounded=0;" vertex="1" parent="1">
          <mxGeometry x="1520" y="970" width="240" height="30" as="geometry" />
        </mxCell>
        <mxCell id="6t0K0k1m3wz6Nv79OAPZ-29" value="&lt;div style=&quot;color: rgb(8, 8, 8);&quot;&gt;&lt;pre style=&quot;font-family: &amp;quot;JetBrains Mono&amp;quot;, monospace;&quot;&gt;&lt;span&gt;&lt;span style=&quot;color: rgb(0, 51, 179);&quot;&gt;new &lt;/span&gt;DisposeTimers(&lt;span style=&quot;color: rgb(135, 16, 148);&quot;&gt;messageWindow&lt;/span&gt;)&lt;/span&gt;&lt;/pre&gt;&lt;/div&gt;" style="text;html=1;align=center;verticalAlign=middle;whiteSpace=wrap;rounded=0;" vertex="1" parent="1">
          <mxGeometry x="1640" y="1170" width="280" height="30" as="geometry" />
        </mxCell>
        <mxCell id="6t0K0k1m3wz6Nv79OAPZ-30" value="aDisposeTimers" style="whiteSpace=wrap;html=1;aspect=fixed;" vertex="1" parent="1">
          <mxGeometry x="2120" y="1120" width="160" height="160" as="geometry" />
        </mxCell>
        <mxCell id="6t0K0k1m3wz6Nv79OAPZ-31" value="" style="endArrow=classic;html=1;rounded=0;exitX=1.03;exitY=0.6;exitDx=0;exitDy=0;exitPerimeter=0;entryX=0;entryY=0.5;entryDx=0;entryDy=0;" edge="1" parent="1" target="6t0K0k1m3wz6Nv79OAPZ-30">
          <mxGeometry width="50" height="50" relative="1" as="geometry">
            <mxPoint x="1440" y="1200" as="sourcePoint" />
            <mxPoint x="1760" y="1200.1399999999999" as="targetPoint" />
          </mxGeometry>
        </mxCell>
        <mxCell id="6t0K0k1m3wz6Nv79OAPZ-33" value="" style="endArrow=classic;html=1;rounded=0;exitX=0;exitY=1;exitDx=0;exitDy=0;dashed=1;" edge="1" parent="1" source="6t0K0k1m3wz6Nv79OAPZ-11">
          <mxGeometry width="50" height="50" relative="1" as="geometry">
            <mxPoint x="590" y="1279.2" as="sourcePoint" />
            <mxPoint x="480" y="1279.2" as="targetPoint" />
          </mxGeometry>
        </mxCell>
        <mxCell id="6t0K0k1m3wz6Nv79OAPZ-35" value="&lt;div style=&quot;color: rgb(8, 8, 8);&quot;&gt;&lt;pre style=&quot;font-family: &amp;quot;JetBrains Mono&amp;quot;, monospace;&quot;&gt;&lt;span&gt;updateResultsPanel(&lt;span style=&quot;color: rgb(0, 0, 0);&quot;&gt;callingObjects&lt;/span&gt;, &lt;span style=&quot;color: rgb(0, 0, 0);&quot;&gt;controller&lt;/span&gt;, &lt;span style=&quot;color: rgb(0, 51, 179);&quot;&gt;true&lt;/span&gt;)&lt;/span&gt;&lt;/pre&gt;&lt;/div&gt;" style="text;html=1;align=center;verticalAlign=middle;whiteSpace=wrap;rounded=0;" vertex="1" parent="1">
          <mxGeometry x="560" y="4090" width="360" height="30" as="geometry" />
        </mxCell>
        <mxCell id="6t0K0k1m3wz6Nv79OAPZ-36" value="" style="endArrow=classic;html=1;rounded=0;entryX=1;entryY=0;entryDx=0;entryDy=0;" edge="1" parent="1" target="6t0K0k1m3wz6Nv79OAPZ-37">
          <mxGeometry width="50" height="50" relative="1" as="geometry">
            <mxPoint x="480" y="4080" as="sourcePoint" />
            <mxPoint x="560" y="4120" as="targetPoint" />
            <Array as="points">
              <mxPoint x="560" y="4080" />
              <mxPoint x="560" y="4120" />
            </Array>
          </mxGeometry>
        </mxCell>
        <mxCell id="6t0K0k1m3wz6Nv79OAPZ-38" value="" style="endArrow=none;dashed=1;html=1;rounded=0;entryX=0.5;entryY=1;entryDx=0;entryDy=0;" edge="1" parent="1" target="77gOGScripnuddrP19CJ-9">
          <mxGeometry width="50" height="50" relative="1" as="geometry">
            <mxPoint x="760" y="1400" as="sourcePoint" />
            <mxPoint x="759.91" y="380" as="targetPoint" />
          </mxGeometry>
        </mxCell>
        <mxCell id="6t0K0k1m3wz6Nv79OAPZ-37" value="" style="rounded=0;whiteSpace=wrap;html=1;" vertex="1" parent="1">
          <mxGeometry x="441" y="4120" width="80" height="2360" as="geometry" />
        </mxCell>
        <mxCell id="6t0K0k1m3wz6Nv79OAPZ-39" value="" style="rounded=0;whiteSpace=wrap;html=1;" vertex="1" parent="1">
          <mxGeometry x="720" y="4200" width="80" height="240" as="geometry" />
        </mxCell>
        <mxCell id="6t0K0k1m3wz6Nv79OAPZ-40" value="&lt;div style=&quot;background-color:#ffffff;color:#080808&quot;&gt;&lt;pre style=&quot;font-family:&#39;JetBrains Mono&#39;,monospace;font-size:9,8pt;&quot;&gt;isLoggedAdmin()&lt;/pre&gt;&lt;/div&gt;" style="text;html=1;align=center;verticalAlign=middle;whiteSpace=wrap;rounded=0;" vertex="1" parent="1">
          <mxGeometry x="560" y="4170" width="120" height="30" as="geometry" />
        </mxCell>
        <mxCell id="6t0K0k1m3wz6Nv79OAPZ-42" value="" style="endArrow=classic;html=1;rounded=0;entryX=0;entryY=0;entryDx=0;entryDy=0;" edge="1" parent="1" target="6t0K0k1m3wz6Nv79OAPZ-39">
          <mxGeometry width="50" height="50" relative="1" as="geometry">
            <mxPoint x="521" y="4200" as="sourcePoint" />
            <mxPoint x="661" y="4200" as="targetPoint" />
          </mxGeometry>
        </mxCell>
        <mxCell id="6t0K0k1m3wz6Nv79OAPZ-43" value="&lt;div style=&quot;color: rgb(8, 8, 8);&quot;&gt;&lt;pre style=&quot;font-family: &amp;quot;JetBrains Mono&amp;quot;, monospace;&quot;&gt;&lt;span&gt;getLoggedUser()&lt;/span&gt;&lt;/pre&gt;&lt;/div&gt;" style="text;html=1;align=center;verticalAlign=middle;whiteSpace=wrap;rounded=0;" vertex="1" parent="1">
          <mxGeometry x="3040" y="4250" width="160" height="30" as="geometry" />
        </mxCell>
        <mxCell id="6t0K0k1m3wz6Nv79OAPZ-44" value="aUserController" style="whiteSpace=wrap;html=1;aspect=fixed;" vertex="1" parent="1">
          <mxGeometry x="5400" y="-120" width="160" height="160" as="geometry" />
        </mxCell>
        <mxCell id="6t0K0k1m3wz6Nv79OAPZ-45" value="" style="endArrow=none;dashed=1;html=1;rounded=0;entryX=0.5;entryY=1;entryDx=0;entryDy=0;exitX=0.5;exitY=0;exitDx=0;exitDy=0;" edge="1" parent="1" source="6t0K0k1m3wz6Nv79OAPZ-46" target="6t0K0k1m3wz6Nv79OAPZ-44">
          <mxGeometry width="50" height="50" relative="1" as="geometry">
            <mxPoint x="1840" y="3670" as="sourcePoint" />
            <mxPoint x="1370" y="2510" as="targetPoint" />
          </mxGeometry>
        </mxCell>
        <mxCell id="6t0K0k1m3wz6Nv79OAPZ-46" value="" style="rounded=0;whiteSpace=wrap;html=1;" vertex="1" parent="1">
          <mxGeometry x="5440" y="4280" width="80" height="80" as="geometry" />
        </mxCell>
        <mxCell id="6t0K0k1m3wz6Nv79OAPZ-47" value="" style="endArrow=classic;html=1;rounded=0;entryX=0;entryY=0;entryDx=0;entryDy=0;" edge="1" parent="1" target="6t0K0k1m3wz6Nv79OAPZ-46">
          <mxGeometry width="50" height="50" relative="1" as="geometry">
            <mxPoint x="800" y="4280" as="sourcePoint" />
            <mxPoint x="2400" y="4290" as="targetPoint" />
          </mxGeometry>
        </mxCell>
        <mxCell id="6t0K0k1m3wz6Nv79OAPZ-48" value="" style="endArrow=classic;html=1;rounded=0;exitX=0;exitY=1;exitDx=0;exitDy=0;dashed=1;" edge="1" parent="1" source="6t0K0k1m3wz6Nv79OAPZ-46">
          <mxGeometry width="50" height="50" relative="1" as="geometry">
            <mxPoint x="1520" y="4360" as="sourcePoint" />
            <mxPoint x="800" y="4360" as="targetPoint" />
          </mxGeometry>
        </mxCell>
        <mxCell id="6t0K0k1m3wz6Nv79OAPZ-49" value="User" style="text;html=1;align=center;verticalAlign=middle;whiteSpace=wrap;rounded=0;" vertex="1" parent="1">
          <mxGeometry x="1590" y="4330" width="60" height="30" as="geometry" />
        </mxCell>
        <mxCell id="6t0K0k1m3wz6Nv79OAPZ-50" value="" style="endArrow=classic;html=1;rounded=0;exitX=0;exitY=1;exitDx=0;exitDy=0;dashed=1;" edge="1" parent="1" source="6t0K0k1m3wz6Nv79OAPZ-39">
          <mxGeometry width="50" height="50" relative="1" as="geometry">
            <mxPoint x="711" y="4440" as="sourcePoint" />
            <mxPoint x="521" y="4440" as="targetPoint" />
          </mxGeometry>
        </mxCell>
        <mxCell id="6t0K0k1m3wz6Nv79OAPZ-51" value="boolean" style="text;html=1;align=center;verticalAlign=middle;whiteSpace=wrap;rounded=0;" vertex="1" parent="1">
          <mxGeometry x="590" y="4410" width="60" height="30" as="geometry" />
        </mxCell>
        <mxCell id="6t0K0k1m3wz6Nv79OAPZ-52" value="" style="shape=card;whiteSpace=wrap;html=1;rounded=0;strokeColor=default;align=center;verticalAlign=middle;fontFamily=Helvetica;fontSize=12;fontColor=default;fillColor=default;rotation=-180;size=20;" vertex="1" parent="1">
          <mxGeometry x="240" y="4480" width="115" height="80" as="geometry" />
        </mxCell>
        <mxCell id="6t0K0k1m3wz6Nv79OAPZ-53" value="ALT" style="text;html=1;align=center;verticalAlign=middle;whiteSpace=wrap;rounded=0;fontFamily=Helvetica;fontSize=12;fontColor=default;" vertex="1" parent="1">
          <mxGeometry x="267.5" y="4505" width="60" height="30" as="geometry" />
        </mxCell>
        <mxCell id="6t0K0k1m3wz6Nv79OAPZ-54" value="&lt;div style=&quot;background-color:#ffffff;color:#080808&quot;&gt;&lt;pre style=&quot;font-family:&#39;JetBrains Mono&#39;,monospace;font-size:9,8pt;&quot;&gt;&lt;span style=&quot;color:#000000;&quot;&gt;controller&lt;/span&gt;.isLoggedAdmin()&lt;/pre&gt;&lt;/div&gt;" style="text;html=1;align=center;verticalAlign=middle;whiteSpace=wrap;rounded=0;" vertex="1" parent="1">
          <mxGeometry x="400" y="4505" width="200" height="30" as="geometry" />
        </mxCell>
        <mxCell id="6t0K0k1m3wz6Nv79OAPZ-55" value="aSearchFlightResult&lt;div&gt;PanelAdmin&lt;/div&gt;" style="rounded=0;whiteSpace=wrap;html=1;" vertex="1" parent="1">
          <mxGeometry x="5720" y="4520" width="160" height="160" as="geometry" />
        </mxCell>
        <mxCell id="6t0K0k1m3wz6Nv79OAPZ-56" value="" style="endArrow=classic;html=1;rounded=0;entryX=0;entryY=0.5;entryDx=0;entryDy=0;" edge="1" parent="1" target="6t0K0k1m3wz6Nv79OAPZ-55">
          <mxGeometry width="50" height="50" relative="1" as="geometry">
            <mxPoint x="521" y="4600" as="sourcePoint" />
            <mxPoint x="1241" y="4600" as="targetPoint" />
          </mxGeometry>
        </mxCell>
        <mxCell id="6t0K0k1m3wz6Nv79OAPZ-57" value="&lt;div style=&quot;color: rgb(8, 8, 8);&quot;&gt;&lt;pre style=&quot;font-family: &amp;quot;JetBrains Mono&amp;quot;, monospace;&quot;&gt;&lt;span&gt;&lt;span style=&quot;color: rgb(0, 51, 179);&quot;&gt;new &lt;/span&gt;SearchFlightResultPanelAdmin(&lt;span style=&quot;color: rgb(0, 0, 0);&quot;&gt;callingObjects&lt;/span&gt;, &lt;span style=&quot;color: rgb(0, 0, 0);&quot;&gt;controller&lt;/span&gt;, &lt;span style=&quot;color: rgb(135, 16, 148);&quot;&gt;ids&lt;/span&gt;, &lt;span style=&quot;color: rgb(135, 16, 148);&quot;&gt;companyNames&lt;/span&gt;, &lt;span style=&quot;color: rgb(135, 16, 148);&quot;&gt;dates&lt;/span&gt;, &lt;span style=&quot;color: rgb(135, 16, 148);&quot;&gt;departureTimes&lt;/span&gt;, &lt;span style=&quot;color: rgb(135, 16, 148);&quot;&gt;arrivalTimes&lt;/span&gt;, &lt;span style=&quot;color: rgb(135, 16, 148);&quot;&gt;delays&lt;/span&gt;, &lt;span style=&quot;color: rgb(135, 16, 148);&quot;&gt;status&lt;/span&gt;, &lt;span style=&quot;color: rgb(135, 16, 148);&quot;&gt;maxSeats&lt;/span&gt;, &lt;span style=&quot;color: rgb(135, 16, 148);&quot;&gt;freeSeats&lt;/span&gt;, &lt;span style=&quot;color: rgb(135, 16, 148);&quot;&gt;cities&lt;/span&gt;, &lt;span style=&quot;color: rgb(0, 0, 0);&quot;&gt;ifSearched&lt;/span&gt;)&lt;/span&gt;&lt;/pre&gt;&lt;/div&gt;" style="text;html=1;align=center;verticalAlign=middle;whiteSpace=wrap;rounded=0;" vertex="1" parent="1">
          <mxGeometry x="2520" y="4570" width="1160" height="30" as="geometry" />
        </mxCell>
        <mxCell id="6t0K0k1m3wz6Nv79OAPZ-59" value="" style="rounded=0;whiteSpace=wrap;html=1;" vertex="1" parent="1">
          <mxGeometry x="5760" y="4680" width="80" height="720" as="geometry" />
        </mxCell>
        <mxCell id="6t0K0k1m3wz6Nv79OAPZ-60" value="aFlightTableModel" style="rounded=0;whiteSpace=wrap;html=1;" vertex="1" parent="1">
          <mxGeometry x="6200" y="4680" width="160" height="160" as="geometry" />
        </mxCell>
        <mxCell id="6t0K0k1m3wz6Nv79OAPZ-61" value="" style="endArrow=classic;html=1;rounded=0;entryX=0;entryY=0.5;entryDx=0;entryDy=0;" edge="1" parent="1" target="6t0K0k1m3wz6Nv79OAPZ-60">
          <mxGeometry width="50" height="50" relative="1" as="geometry">
            <mxPoint x="5840" y="4759.66" as="sourcePoint" />
            <mxPoint x="6160" y="4759.66" as="targetPoint" />
          </mxGeometry>
        </mxCell>
        <mxCell id="6t0K0k1m3wz6Nv79OAPZ-62" value="&lt;div style=&quot;color: rgb(8, 8, 8);&quot;&gt;&lt;pre style=&quot;font-family: &amp;quot;JetBrains Mono&amp;quot;, monospace;&quot;&gt;&lt;span&gt;&lt;span style=&quot;color: rgb(0, 51, 179);&quot;&gt;new &lt;/span&gt;FlightTableModel( &lt;span style=&quot;color: rgb(0, 0, 0);&quot;&gt;controller&lt;/span&gt;, &lt;span style=&quot;color: rgb(0, 0, 0);&quot;&gt;ids&lt;/span&gt;, &lt;span style=&quot;color: rgb(0, 0, 0);&quot;&gt;companyNames&lt;/span&gt;,&lt;/span&gt;&lt;/pre&gt;&lt;pre style=&quot;font-family: &amp;quot;JetBrains Mono&amp;quot;, monospace;&quot;&gt;&lt;span&gt;&lt;span style=&quot;color: rgb(0, 0, 0);&quot;&gt;dates&lt;/span&gt;, &lt;span style=&quot;color: rgb(0, 0, 0);&quot;&gt;departureTimes&lt;/span&gt;, &lt;/span&gt;arrivalTimes&lt;span style=&quot;background-color: transparent; white-space: normal;&quot;&gt;, &lt;/span&gt;&lt;span style=&quot;background-color: transparent; white-space: normal; color: rgb(0, 0, 0);&quot;&gt;delays&lt;/span&gt;&lt;span style=&quot;background-color: transparent; white-space: normal;&quot;&gt;,&lt;/span&gt;&lt;/pre&gt;&lt;pre style=&quot;font-family: &amp;quot;JetBrains Mono&amp;quot;, monospace;&quot;&gt;&lt;span style=&quot;background-color: transparent; white-space: normal; color: rgb(0, 0, 0);&quot;&gt;status&lt;/span&gt;&lt;span style=&quot;background-color: transparent; white-space: normal;&quot;&gt;, &lt;/span&gt;&lt;span style=&quot;background-color: transparent; white-space: normal; color: rgb(0, 0, 0);&quot;&gt;maxSeats&lt;/span&gt;&lt;span style=&quot;background-color: transparent; white-space: normal;&quot;&gt;, &lt;/span&gt;&lt;span style=&quot;background-color: transparent; white-space: normal; color: rgb(0, 0, 0);&quot;&gt;freeSeats&lt;/span&gt;&lt;span style=&quot;background-color: transparent; white-space: normal;&quot;&gt;, &lt;/span&gt;&lt;span style=&quot;background-color: transparent; white-space: normal; color: rgb(0, 0, 0);&quot;&gt;cities&lt;/span&gt;&lt;span style=&quot;background-color: transparent; white-space: normal;&quot;&gt;)&lt;/span&gt;&lt;/pre&gt;&lt;/div&gt;" style="text;html=1;align=center;verticalAlign=middle;whiteSpace=wrap;rounded=0;" vertex="1" parent="1">
          <mxGeometry x="5840" y="4680" width="360" height="80" as="geometry" />
        </mxCell>
        <mxCell id="6t0K0k1m3wz6Nv79OAPZ-64" value="" style="shape=card;whiteSpace=wrap;html=1;rounded=0;strokeColor=default;align=center;verticalAlign=middle;fontFamily=Helvetica;fontSize=12;fontColor=default;fillColor=default;rotation=-180;size=20;" vertex="1" parent="1">
          <mxGeometry x="5560" y="4880" width="115" height="80" as="geometry" />
        </mxCell>
        <mxCell id="6t0K0k1m3wz6Nv79OAPZ-65" value="ALT" style="text;html=1;align=center;verticalAlign=middle;whiteSpace=wrap;rounded=0;fontFamily=Helvetica;fontSize=12;fontColor=default;" vertex="1" parent="1">
          <mxGeometry x="5587.5" y="4905" width="60" height="30" as="geometry" />
        </mxCell>
        <mxCell id="6t0K0k1m3wz6Nv79OAPZ-66" value="&lt;div style=&quot;background-color:#ffffff;color:#080808&quot;&gt;&lt;pre style=&quot;font-family:&#39;JetBrains Mono&#39;,monospace;font-size:9,8pt;&quot;&gt;&lt;span style=&quot;color:#000000;&quot;&gt;[ifSearched &lt;/span&gt;&amp;amp;&amp;amp; !&lt;span style=&quot;color:#000000;&quot;&gt;hasResults]&lt;/span&gt;&lt;/pre&gt;&lt;/div&gt;" style="text;html=1;align=center;verticalAlign=middle;whiteSpace=wrap;rounded=0;" vertex="1" parent="1">
          <mxGeometry x="5700" y="4905" width="200" height="30" as="geometry" />
        </mxCell>
        <mxCell id="6t0K0k1m3wz6Nv79OAPZ-67" value="&lt;div style=&quot;color: rgb(8, 8, 8);&quot;&gt;&lt;pre style=&quot;font-family: &amp;quot;JetBrains Mono&amp;quot;, monospace;&quot;&gt;&lt;span&gt;&lt;span style=&quot;color: rgb(0, 51, 179);&quot;&gt;new &lt;/span&gt;JTableWithEmptyMessage(&lt;span style=&quot;color: rgb(135, 16, 148);&quot;&gt;tableModel&lt;/span&gt;, &lt;span style=&quot;color: rgb(6, 125, 23);&quot;&gt;&quot;Nessun risultato per i parametri di ricerca impostati&quot;&lt;/span&gt;)&lt;/span&gt;&lt;/pre&gt;&lt;/div&gt;" style="text;html=1;align=center;verticalAlign=middle;whiteSpace=wrap;rounded=0;" vertex="1" parent="1">
          <mxGeometry x="5840" y="4970" width="680" height="30" as="geometry" />
        </mxCell>
        <mxCell id="6t0K0k1m3wz6Nv79OAPZ-68" value="&lt;div style=&quot;background-color:#ffffff;color:#080808&quot;&gt;&lt;pre style=&quot;font-family:&#39;JetBrains Mono&#39;,monospace;font-size:9,8pt;&quot;&gt;aJTableWithEmptyMessage&lt;/pre&gt;&lt;/div&gt;" style="rounded=0;whiteSpace=wrap;html=1;" vertex="1" parent="1">
          <mxGeometry x="6520" y="4920" width="160" height="160" as="geometry" />
        </mxCell>
        <mxCell id="6t0K0k1m3wz6Nv79OAPZ-69" value="" style="endArrow=classic;html=1;rounded=0;exitX=0;exitY=0.5;exitDx=0;exitDy=0;entryX=0;entryY=0.5;entryDx=0;entryDy=0;" edge="1" parent="1" target="6t0K0k1m3wz6Nv79OAPZ-68">
          <mxGeometry width="50" height="50" relative="1" as="geometry">
            <mxPoint x="5839.995757575758" y="4999.7" as="sourcePoint" />
            <mxPoint x="6500" y="5020" as="targetPoint" />
          </mxGeometry>
        </mxCell>
        <mxCell id="6t0K0k1m3wz6Nv79OAPZ-101" value="" style="endArrow=none;dashed=1;html=1;rounded=0;fontFamily=Helvetica;fontSize=12;fontColor=default;entryX=0.5;entryY=1;entryDx=0;entryDy=0;exitX=0.5;exitY=0;exitDx=0;exitDy=0;" edge="1" parent="1" source="6t0K0k1m3wz6Nv79OAPZ-123" target="6t0K0k1m3wz6Nv79OAPZ-105">
          <mxGeometry width="50" height="50" relative="1" as="geometry">
            <mxPoint x="3710" y="2470" as="sourcePoint" />
            <mxPoint x="3760" y="2420" as="targetPoint" />
          </mxGeometry>
        </mxCell>
        <mxCell id="6t0K0k1m3wz6Nv79OAPZ-102" value="aFlightDaoImpl" style="whiteSpace=wrap;html=1;aspect=fixed;rounded=0;strokeColor=default;align=center;verticalAlign=middle;fontFamily=Helvetica;fontSize=12;fontColor=default;fillColor=default;" vertex="1" parent="1">
          <mxGeometry x="2999.5" y="1640" width="161" height="160" as="geometry" />
        </mxCell>
        <mxCell id="6t0K0k1m3wz6Nv79OAPZ-103" value="" style="rounded=0;whiteSpace=wrap;html=1;strokeColor=default;align=center;verticalAlign=middle;fontFamily=Helvetica;fontSize=12;fontColor=default;fillColor=default;" vertex="1" parent="1">
          <mxGeometry x="3040" y="1880" width="80" height="1040" as="geometry" />
        </mxCell>
        <mxCell id="6t0K0k1m3wz6Nv79OAPZ-105" value="" style="rounded=0;whiteSpace=wrap;html=1;strokeColor=default;align=center;verticalAlign=middle;fontFamily=Helvetica;fontSize=12;fontColor=default;fillColor=default;" vertex="1" parent="1">
          <mxGeometry x="3520" y="1960" width="80" height="400" as="geometry" />
        </mxCell>
        <mxCell id="6t0K0k1m3wz6Nv79OAPZ-106" value="" style="endArrow=classic;html=1;rounded=0;fontFamily=Helvetica;fontSize=12;fontColor=default;entryX=0;entryY=0;entryDx=0;entryDy=0;exitX=1.004;exitY=0.143;exitDx=0;exitDy=0;exitPerimeter=0;" edge="1" parent="1" target="6t0K0k1m3wz6Nv79OAPZ-105">
          <mxGeometry width="50" height="50" relative="1" as="geometry">
            <mxPoint x="3120.3199999999997" y="1960.1599999999999" as="sourcePoint" />
            <mxPoint x="3630" y="1850" as="targetPoint" />
          </mxGeometry>
        </mxCell>
        <mxCell id="6t0K0k1m3wz6Nv79OAPZ-107" value="getInstance()" style="text;html=1;align=center;verticalAlign=middle;whiteSpace=wrap;rounded=0;fontFamily=Helvetica;fontSize=12;fontColor=default;" vertex="1" parent="1">
          <mxGeometry x="3280" y="1930" width="80" height="30" as="geometry" />
        </mxCell>
        <mxCell id="6t0K0k1m3wz6Nv79OAPZ-108" value="" style="shape=card;whiteSpace=wrap;html=1;rounded=0;strokeColor=default;align=center;verticalAlign=middle;fontFamily=Helvetica;fontSize=12;fontColor=default;fillColor=default;rotation=-180;size=20;" vertex="1" parent="1">
          <mxGeometry x="2880" y="2040" width="115" height="80" as="geometry" />
        </mxCell>
        <mxCell id="6t0K0k1m3wz6Nv79OAPZ-109" value="ALT" style="text;html=1;align=center;verticalAlign=middle;whiteSpace=wrap;rounded=0;fontFamily=Helvetica;fontSize=12;fontColor=default;" vertex="1" parent="1">
          <mxGeometry x="2907.5" y="2065" width="60" height="30" as="geometry" />
        </mxCell>
        <mxCell id="6t0K0k1m3wz6Nv79OAPZ-110" value="&lt;div style=&quot;background-color: rgb(255, 255, 255);&quot;&gt;&lt;pre style=&quot;font-family: &amp;quot;JetBrains Mono&amp;quot;, monospace;&quot;&gt;&lt;span style=&quot;font-style: italic; color: rgb(135, 16, 148);&quot;&gt;&lt;font style=&quot;color: rgb(0, 0, 0);&quot;&gt;[&lt;/font&gt;&lt;/span&gt;&lt;span style=&quot;color: rgb(135, 16, 148); font-style: italic;&quot;&gt;instance &lt;/span&gt;&lt;font color=&quot;#080808&quot;&gt;== &lt;/font&gt;&lt;span style=&quot;color: rgb(0, 51, 179);&quot;&gt;null &lt;/span&gt;&lt;font color=&quot;#080808&quot;&gt;|| &lt;/font&gt;&lt;span style=&quot;color: rgb(135, 16, 148); font-style: italic;&quot;&gt;instance&lt;/span&gt;&lt;font color=&quot;#080808&quot;&gt;.&lt;/font&gt;&lt;span style=&quot;color: rgb(135, 16, 148);&quot;&gt;connection&lt;/span&gt;&lt;font color=&quot;#080808&quot;&gt;.isClosed()]&lt;/font&gt;&lt;/pre&gt;&lt;/div&gt;" style="text;html=1;align=center;verticalAlign=middle;whiteSpace=wrap;rounded=0;fontFamily=Helvetica;fontSize=12;fontColor=default;" vertex="1" parent="1">
          <mxGeometry x="3380" y="2060" width="360" height="40" as="geometry" />
        </mxCell>
        <mxCell id="6t0K0k1m3wz6Nv79OAPZ-111" value="another&lt;div&gt;ConnessioneDatabase&lt;/div&gt;" style="whiteSpace=wrap;html=1;aspect=fixed;rounded=0;strokeColor=default;align=center;verticalAlign=middle;fontFamily=Helvetica;fontSize=12;fontColor=default;fillColor=default;" vertex="1" parent="1">
          <mxGeometry x="3960" y="2080" width="160" height="160" as="geometry" />
        </mxCell>
        <mxCell id="6t0K0k1m3wz6Nv79OAPZ-112" value="" style="endArrow=classic;html=1;rounded=0;fontFamily=Helvetica;fontSize=12;fontColor=default;entryX=0;entryY=0.5;entryDx=0;entryDy=0;exitX=1;exitY=0.5;exitDx=0;exitDy=0;" edge="1" parent="1" source="6t0K0k1m3wz6Nv79OAPZ-105" target="6t0K0k1m3wz6Nv79OAPZ-111">
          <mxGeometry width="50" height="50" relative="1" as="geometry">
            <mxPoint x="3640" y="2160" as="sourcePoint" />
            <mxPoint x="3840" y="1950" as="targetPoint" />
          </mxGeometry>
        </mxCell>
        <mxCell id="6t0K0k1m3wz6Nv79OAPZ-113" value="&lt;div style=&quot;color: rgb(8, 8, 8);&quot;&gt;&lt;pre style=&quot;font-family: &amp;quot;JetBrains Mono&amp;quot;, monospace;&quot;&gt;&lt;span&gt;&lt;span style=&quot;color: rgb(0, 51, 179);&quot;&gt;new &lt;/span&gt;ConnessioneDatabase()&lt;/span&gt;&lt;/pre&gt;&lt;/div&gt;" style="text;html=1;align=center;verticalAlign=middle;whiteSpace=wrap;rounded=0;fontFamily=Helvetica;fontSize=12;fontColor=default;" vertex="1" parent="1">
          <mxGeometry x="3770" y="2130" width="60" height="30" as="geometry" />
        </mxCell>
        <mxCell id="6t0K0k1m3wz6Nv79OAPZ-114" value="" style="endArrow=classic;html=1;rounded=0;fontFamily=Helvetica;fontSize=12;fontColor=default;exitX=0;exitY=1;exitDx=0;exitDy=0;dashed=1;entryX=1;entryY=0.5;entryDx=0;entryDy=0;" edge="1" parent="1" source="6t0K0k1m3wz6Nv79OAPZ-105">
          <mxGeometry width="50" height="50" relative="1" as="geometry">
            <mxPoint x="3430" y="2420" as="sourcePoint" />
            <mxPoint x="3120" y="2360" as="targetPoint" />
          </mxGeometry>
        </mxCell>
        <mxCell id="6t0K0k1m3wz6Nv79OAPZ-115" value="anotherConnessioneDatabase" style="text;html=1;align=center;verticalAlign=middle;whiteSpace=wrap;rounded=0;fontFamily=Helvetica;fontSize=12;fontColor=default;" vertex="1" parent="1">
          <mxGeometry x="3200" y="2330" width="240" height="30" as="geometry" />
        </mxCell>
        <mxCell id="6t0K0k1m3wz6Nv79OAPZ-116" value="" style="endArrow=classic;html=1;rounded=0;fontFamily=Helvetica;fontSize=12;fontColor=default;entryX=0;entryY=0;entryDx=0;entryDy=0;exitX=1.003;exitY=0.571;exitDx=0;exitDy=0;exitPerimeter=0;" edge="1" parent="1" target="6t0K0k1m3wz6Nv79OAPZ-117">
          <mxGeometry width="50" height="50" relative="1" as="geometry">
            <mxPoint x="3120.24" y="2439.5199999999995" as="sourcePoint" />
            <mxPoint x="4000" y="2440" as="targetPoint" />
          </mxGeometry>
        </mxCell>
        <mxCell id="6t0K0k1m3wz6Nv79OAPZ-117" value="" style="rounded=0;whiteSpace=wrap;html=1;strokeColor=default;align=center;verticalAlign=middle;fontFamily=Helvetica;fontSize=12;fontColor=default;fillColor=default;" vertex="1" parent="1">
          <mxGeometry x="4000" y="2440" width="80" height="80" as="geometry" />
        </mxCell>
        <mxCell id="6t0K0k1m3wz6Nv79OAPZ-118" value="" style="endArrow=none;dashed=1;html=1;rounded=0;fontFamily=Helvetica;fontSize=12;fontColor=default;entryX=0.5;entryY=1;entryDx=0;entryDy=0;exitX=0.5;exitY=0;exitDx=0;exitDy=0;" edge="1" parent="1" source="6t0K0k1m3wz6Nv79OAPZ-117" target="6t0K0k1m3wz6Nv79OAPZ-111">
          <mxGeometry width="50" height="50" relative="1" as="geometry">
            <mxPoint x="3800" y="2470" as="sourcePoint" />
            <mxPoint x="3850" y="2420" as="targetPoint" />
          </mxGeometry>
        </mxCell>
        <mxCell id="6t0K0k1m3wz6Nv79OAPZ-119" value="getConnection()" style="text;html=1;align=center;verticalAlign=middle;whiteSpace=wrap;rounded=0;fontFamily=Helvetica;fontSize=12;fontColor=default;" vertex="1" parent="1">
          <mxGeometry x="3480" y="2410" width="160" height="30" as="geometry" />
        </mxCell>
        <mxCell id="6t0K0k1m3wz6Nv79OAPZ-120" value="" style="endArrow=classic;html=1;rounded=0;fontFamily=Helvetica;fontSize=12;fontColor=default;exitX=0;exitY=1;exitDx=0;exitDy=0;dashed=1;entryX=1;entryY=0.643;entryDx=0;entryDy=0;entryPerimeter=0;" edge="1" parent="1" source="6t0K0k1m3wz6Nv79OAPZ-117">
          <mxGeometry width="50" height="50" relative="1" as="geometry">
            <mxPoint x="3810" y="2370" as="sourcePoint" />
            <mxPoint x="3120" y="2520.16" as="targetPoint" />
          </mxGeometry>
        </mxCell>
        <mxCell id="6t0K0k1m3wz6Nv79OAPZ-121" value="aConnection" style="text;html=1;align=center;verticalAlign=middle;whiteSpace=wrap;rounded=0;fontFamily=Helvetica;fontSize=12;fontColor=default;" vertex="1" parent="1">
          <mxGeometry x="3520" y="2490" width="80" height="30" as="geometry" />
        </mxCell>
        <mxCell id="6t0K0k1m3wz6Nv79OAPZ-122" value="" style="endArrow=none;dashed=1;html=1;rounded=0;fontFamily=Helvetica;fontSize=12;fontColor=default;" edge="1" parent="1">
          <mxGeometry width="50" height="50" relative="1" as="geometry">
            <mxPoint x="2880" y="2560" as="sourcePoint" />
            <mxPoint x="4160" y="2560" as="targetPoint" />
          </mxGeometry>
        </mxCell>
        <mxCell id="6t0K0k1m3wz6Nv79OAPZ-123" value="" style="rounded=0;whiteSpace=wrap;html=1;strokeColor=default;align=center;verticalAlign=middle;fontFamily=Helvetica;fontSize=12;fontColor=default;fillColor=default;" vertex="1" parent="1">
          <mxGeometry x="3520" y="2560" width="80" height="80" as="geometry" />
        </mxCell>
        <mxCell id="6t0K0k1m3wz6Nv79OAPZ-124" value="" style="endArrow=classic;html=1;rounded=0;fontFamily=Helvetica;fontSize=12;fontColor=default;exitX=0;exitY=1;exitDx=0;exitDy=0;dashed=1;entryX=1;entryY=0.75;entryDx=0;entryDy=0;" edge="1" parent="1" source="6t0K0k1m3wz6Nv79OAPZ-123">
          <mxGeometry width="50" height="50" relative="1" as="geometry">
            <mxPoint x="3580" y="2600" as="sourcePoint" />
            <mxPoint x="3120" y="2640" as="targetPoint" />
          </mxGeometry>
        </mxCell>
        <mxCell id="6t0K0k1m3wz6Nv79OAPZ-125" value="ConnessioneDatabase" style="text;html=1;align=center;verticalAlign=middle;whiteSpace=wrap;rounded=0;fontFamily=Helvetica;fontSize=12;fontColor=default;" vertex="1" parent="1">
          <mxGeometry x="3240" y="2610" width="160" height="30" as="geometry" />
        </mxCell>
        <mxCell id="6t0K0k1m3wz6Nv79OAPZ-126" value="" style="endArrow=classic;html=1;rounded=0;fontFamily=Helvetica;fontSize=12;fontColor=default;entryX=0;entryY=0;entryDx=0;entryDy=0;exitX=1;exitY=0.822;exitDx=0;exitDy=0;exitPerimeter=0;" edge="1" parent="1" target="6t0K0k1m3wz6Nv79OAPZ-127">
          <mxGeometry width="50" height="50" relative="1" as="geometry">
            <mxPoint x="3120" y="2720.6399999999994" as="sourcePoint" />
            <mxPoint x="3520" y="2720" as="targetPoint" />
          </mxGeometry>
        </mxCell>
        <mxCell id="6t0K0k1m3wz6Nv79OAPZ-127" value="" style="rounded=0;whiteSpace=wrap;html=1;strokeColor=default;align=center;verticalAlign=middle;fontFamily=Helvetica;fontSize=12;fontColor=default;fillColor=default;" vertex="1" parent="1">
          <mxGeometry x="3520" y="2720" width="80" height="80" as="geometry" />
        </mxCell>
        <mxCell id="6t0K0k1m3wz6Nv79OAPZ-128" value="" style="endArrow=classic;html=1;rounded=0;fontFamily=Helvetica;fontSize=12;fontColor=default;exitX=0;exitY=1;exitDx=0;exitDy=0;dashed=1;entryX=0.994;entryY=0.893;entryDx=0;entryDy=0;entryPerimeter=0;" edge="1" parent="1" source="6t0K0k1m3wz6Nv79OAPZ-127">
          <mxGeometry width="50" height="50" relative="1" as="geometry">
            <mxPoint x="4270" y="2520" as="sourcePoint" />
            <mxPoint x="3119.5199999999995" y="2800.16" as="targetPoint" />
          </mxGeometry>
        </mxCell>
        <mxCell id="6t0K0k1m3wz6Nv79OAPZ-129" value="getConnection()" style="text;html=1;align=center;verticalAlign=middle;whiteSpace=wrap;rounded=0;fontFamily=Helvetica;fontSize=12;fontColor=default;" vertex="1" parent="1">
          <mxGeometry x="3240" y="2690" width="160" height="30" as="geometry" />
        </mxCell>
        <mxCell id="6t0K0k1m3wz6Nv79OAPZ-130" value="aConnection" style="text;html=1;align=center;verticalAlign=middle;whiteSpace=wrap;rounded=0;fontFamily=Helvetica;fontSize=12;fontColor=default;" vertex="1" parent="1">
          <mxGeometry x="3280" y="2770" width="80" height="30" as="geometry" />
        </mxCell>
        <mxCell id="6t0K0k1m3wz6Nv79OAPZ-131" value="[else]" style="text;html=1;align=center;verticalAlign=middle;whiteSpace=wrap;rounded=0;fontFamily=Helvetica;fontSize=12;fontColor=default;" vertex="1" parent="1">
          <mxGeometry x="3440" y="2585" width="80" height="30" as="geometry" />
        </mxCell>
        <mxCell id="6t0K0k1m3wz6Nv79OAPZ-136" value="" style="endArrow=none;dashed=1;html=1;rounded=0;entryX=0.5;entryY=1;entryDx=0;entryDy=0;exitX=0.5;exitY=0;exitDx=0;exitDy=0;" edge="1" parent="1" source="6t0K0k1m3wz6Nv79OAPZ-103" target="6t0K0k1m3wz6Nv79OAPZ-102">
          <mxGeometry width="50" height="50" relative="1" as="geometry">
            <mxPoint x="2620" y="1960" as="sourcePoint" />
            <mxPoint x="2670" y="1910" as="targetPoint" />
          </mxGeometry>
        </mxCell>
        <mxCell id="6t0K0k1m3wz6Nv79OAPZ-138" value="" style="rounded=0;whiteSpace=wrap;html=1;" vertex="1" parent="1">
          <mxGeometry x="5800" y="5200" width="80" height="80" as="geometry" />
        </mxCell>
        <mxCell id="6t0K0k1m3wz6Nv79OAPZ-139" value="" style="endArrow=classic;html=1;rounded=0;" edge="1" parent="1">
          <mxGeometry width="50" height="50" relative="1" as="geometry">
            <mxPoint x="5840" y="5160" as="sourcePoint" />
            <mxPoint x="5880" y="5200" as="targetPoint" />
            <Array as="points">
              <mxPoint x="5920" y="5160" />
              <mxPoint x="5920" y="5200" />
            </Array>
          </mxGeometry>
        </mxCell>
        <mxCell id="6t0K0k1m3wz6Nv79OAPZ-140" value="&lt;div style=&quot;color: rgb(8, 8, 8);&quot;&gt;&lt;pre style=&quot;font-family: &amp;quot;JetBrains Mono&amp;quot;, monospace;&quot;&gt;&lt;span&gt;setTableApperance()&lt;/span&gt;&lt;/pre&gt;&lt;/div&gt;" style="text;html=1;align=center;verticalAlign=middle;whiteSpace=wrap;rounded=0;" vertex="1" parent="1">
          <mxGeometry x="5920" y="5170" width="130" height="20" as="geometry" />
        </mxCell>
        <mxCell id="6t0K0k1m3wz6Nv79OAPZ-141" value="" style="endArrow=classic;html=1;rounded=0;entryX=1.011;entryY=0.889;entryDx=0;entryDy=0;entryPerimeter=0;dashed=1;" edge="1" parent="1" target="6t0K0k1m3wz6Nv79OAPZ-59">
          <mxGeometry width="50" height="50" relative="1" as="geometry">
            <mxPoint x="5880" y="5280" as="sourcePoint" />
            <mxPoint x="5920" y="5320" as="targetPoint" />
            <Array as="points">
              <mxPoint x="5920" y="5280" />
              <mxPoint x="5920" y="5320" />
            </Array>
          </mxGeometry>
        </mxCell>
        <mxCell id="6t0K0k1m3wz6Nv79OAPZ-142" value="void" style="text;html=1;align=center;verticalAlign=middle;whiteSpace=wrap;rounded=0;" vertex="1" parent="1">
          <mxGeometry x="5920" y="5290" width="40" height="20" as="geometry" />
        </mxCell>
        <mxCell id="6t0K0k1m3wz6Nv79OAPZ-143" value="&lt;div style=&quot;color: rgb(8, 8, 8);&quot;&gt;&lt;pre style=&quot;font-family: &amp;quot;JetBrains Mono&amp;quot;, monospace;&quot;&gt;&lt;span&gt;&lt;span style=&quot;color: rgb(0, 51, 179);&quot;&gt;new &lt;/span&gt;SearchFlightResultPanel(&lt;span style=&quot;color: rgb(0, 0, 0);&quot;&gt;callingObjects&lt;/span&gt;, &lt;span style=&quot;color: rgb(0, 0, 0);&quot;&gt;controller&lt;/span&gt;, &lt;span style=&quot;color: rgb(135, 16, 148);&quot;&gt;ids&lt;/span&gt;, &lt;span style=&quot;color: rgb(135, 16, 148);&quot;&gt;companyNames&lt;/span&gt;, &lt;span style=&quot;color: rgb(135, 16, 148);&quot;&gt;dates&lt;/span&gt;, &lt;span style=&quot;color: rgb(135, 16, 148);&quot;&gt;departureTimes&lt;/span&gt;, &lt;span style=&quot;color: rgb(135, 16, 148);&quot;&gt;arrivalTimes&lt;/span&gt;, &lt;span style=&quot;color: rgb(135, 16, 148);&quot;&gt;delays&lt;/span&gt;, &lt;span style=&quot;color: rgb(135, 16, 148);&quot;&gt;status&lt;/span&gt;, &lt;span style=&quot;color: rgb(135, 16, 148);&quot;&gt;maxSeats&lt;/span&gt;, &lt;span style=&quot;color: rgb(135, 16, 148);&quot;&gt;freeSeats&lt;/span&gt;, &lt;span style=&quot;color: rgb(135, 16, 148);&quot;&gt;cities&lt;/span&gt;, &lt;span style=&quot;color: rgb(0, 0, 0);&quot;&gt;ifSearched&lt;/span&gt;)&lt;/span&gt;&lt;/pre&gt;&lt;/div&gt;" style="text;html=1;align=center;verticalAlign=middle;whiteSpace=wrap;rounded=0;" vertex="1" parent="1">
          <mxGeometry x="3120" y="5540" width="1120" height="20" as="geometry" />
        </mxCell>
        <mxCell id="6t0K0k1m3wz6Nv79OAPZ-145" value="" style="endArrow=classic;html=1;rounded=0;exitX=0;exitY=1;exitDx=0;exitDy=0;dashed=1;" edge="1" parent="1" source="6t0K0k1m3wz6Nv79OAPZ-59">
          <mxGeometry width="50" height="50" relative="1" as="geometry">
            <mxPoint x="2791" y="5400" as="sourcePoint" />
            <mxPoint x="521" y="5400" as="targetPoint" />
          </mxGeometry>
        </mxCell>
        <mxCell id="6t0K0k1m3wz6Nv79OAPZ-146" value="[else]" style="text;html=1;align=center;verticalAlign=middle;whiteSpace=wrap;rounded=0;" vertex="1" parent="1">
          <mxGeometry x="340" y="5460" width="60" height="40" as="geometry" />
        </mxCell>
        <mxCell id="6t0K0k1m3wz6Nv79OAPZ-147" value="" style="endArrow=none;dashed=1;html=1;rounded=0;" edge="1" parent="1">
          <mxGeometry width="50" height="50" relative="1" as="geometry">
            <mxPoint x="240" y="5440" as="sourcePoint" />
            <mxPoint x="7880" y="5440" as="targetPoint" />
          </mxGeometry>
        </mxCell>
        <mxCell id="6t0K0k1m3wz6Nv79OAPZ-149" value="aSearchFlightResult&lt;div&gt;Panel&lt;/div&gt;" style="rounded=0;whiteSpace=wrap;html=1;" vertex="1" parent="1">
          <mxGeometry x="6840" y="5480" width="160" height="160" as="geometry" />
        </mxCell>
        <mxCell id="6t0K0k1m3wz6Nv79OAPZ-150" value="" style="endArrow=classic;html=1;rounded=0;entryX=0;entryY=0.5;entryDx=0;entryDy=0;" edge="1" parent="1" target="6t0K0k1m3wz6Nv79OAPZ-149">
          <mxGeometry width="50" height="50" relative="1" as="geometry">
            <mxPoint x="521" y="5560" as="sourcePoint" />
            <mxPoint x="3871" y="5560" as="targetPoint" />
          </mxGeometry>
        </mxCell>
        <mxCell id="6t0K0k1m3wz6Nv79OAPZ-151" value="anotherFlightTableModel" style="rounded=0;whiteSpace=wrap;html=1;" vertex="1" parent="1">
          <mxGeometry x="7320" y="5640" width="160" height="160" as="geometry" />
        </mxCell>
        <mxCell id="6t0K0k1m3wz6Nv79OAPZ-152" value="" style="endArrow=classic;html=1;rounded=0;entryX=0;entryY=0.5;entryDx=0;entryDy=0;" edge="1" parent="1" target="6t0K0k1m3wz6Nv79OAPZ-151">
          <mxGeometry width="50" height="50" relative="1" as="geometry">
            <mxPoint x="6960" y="5719.66" as="sourcePoint" />
            <mxPoint x="7280" y="5719.66" as="targetPoint" />
          </mxGeometry>
        </mxCell>
        <mxCell id="6t0K0k1m3wz6Nv79OAPZ-153" value="&lt;div style=&quot;color: rgb(8, 8, 8);&quot;&gt;&lt;pre style=&quot;font-family: &amp;quot;JetBrains Mono&amp;quot;, monospace;&quot;&gt;&lt;span&gt;&lt;span style=&quot;color: rgb(0, 51, 179);&quot;&gt;new &lt;/span&gt;FlightTableModel( &lt;span style=&quot;color: rgb(0, 0, 0);&quot;&gt;controller&lt;/span&gt;, &lt;span style=&quot;color: rgb(0, 0, 0);&quot;&gt;ids&lt;/span&gt;, &lt;span style=&quot;color: rgb(0, 0, 0);&quot;&gt;companyNames&lt;/span&gt;,&lt;/span&gt;&lt;/pre&gt;&lt;pre style=&quot;font-family: &amp;quot;JetBrains Mono&amp;quot;, monospace;&quot;&gt;&lt;span&gt;&lt;span style=&quot;color: rgb(0, 0, 0);&quot;&gt;dates&lt;/span&gt;, &lt;span style=&quot;color: rgb(0, 0, 0);&quot;&gt;departureTimes&lt;/span&gt;, &lt;/span&gt;arrivalTimes&lt;span style=&quot;background-color: transparent; white-space: normal;&quot;&gt;, &lt;/span&gt;&lt;span style=&quot;background-color: transparent; white-space: normal; color: rgb(0, 0, 0);&quot;&gt;delays&lt;/span&gt;&lt;span style=&quot;background-color: transparent; white-space: normal;&quot;&gt;,&lt;/span&gt;&lt;/pre&gt;&lt;pre style=&quot;font-family: &amp;quot;JetBrains Mono&amp;quot;, monospace;&quot;&gt;&lt;span style=&quot;background-color: transparent; white-space: normal; color: rgb(0, 0, 0);&quot;&gt;status&lt;/span&gt;&lt;span style=&quot;background-color: transparent; white-space: normal;&quot;&gt;, &lt;/span&gt;&lt;span style=&quot;background-color: transparent; white-space: normal; color: rgb(0, 0, 0);&quot;&gt;maxSeats&lt;/span&gt;&lt;span style=&quot;background-color: transparent; white-space: normal;&quot;&gt;, &lt;/span&gt;&lt;span style=&quot;background-color: transparent; white-space: normal; color: rgb(0, 0, 0);&quot;&gt;freeSeats&lt;/span&gt;&lt;span style=&quot;background-color: transparent; white-space: normal;&quot;&gt;, &lt;/span&gt;&lt;span style=&quot;background-color: transparent; white-space: normal; color: rgb(0, 0, 0);&quot;&gt;cities&lt;/span&gt;&lt;span style=&quot;background-color: transparent; white-space: normal;&quot;&gt;)&lt;/span&gt;&lt;/pre&gt;&lt;/div&gt;" style="text;html=1;align=center;verticalAlign=middle;whiteSpace=wrap;rounded=0;" vertex="1" parent="1">
          <mxGeometry x="6960" y="5640" width="360" height="80" as="geometry" />
        </mxCell>
        <mxCell id="6t0K0k1m3wz6Nv79OAPZ-154" value="" style="rounded=0;whiteSpace=wrap;html=1;" vertex="1" parent="1">
          <mxGeometry x="6880" y="5640" width="80" height="760" as="geometry" />
        </mxCell>
        <mxCell id="6t0K0k1m3wz6Nv79OAPZ-155" value="" style="shape=card;whiteSpace=wrap;html=1;rounded=0;strokeColor=default;align=center;verticalAlign=middle;fontFamily=Helvetica;fontSize=12;fontColor=default;fillColor=default;rotation=-180;size=20;" vertex="1" parent="1">
          <mxGeometry x="6680" y="5840" width="115" height="80" as="geometry" />
        </mxCell>
        <mxCell id="6t0K0k1m3wz6Nv79OAPZ-156" value="ALT" style="text;html=1;align=center;verticalAlign=middle;whiteSpace=wrap;rounded=0;fontFamily=Helvetica;fontSize=12;fontColor=default;" vertex="1" parent="1">
          <mxGeometry x="6707.5" y="5865" width="60" height="30" as="geometry" />
        </mxCell>
        <mxCell id="6t0K0k1m3wz6Nv79OAPZ-157" value="&lt;div style=&quot;background-color:#ffffff;color:#080808&quot;&gt;&lt;pre style=&quot;font-family:&#39;JetBrains Mono&#39;,monospace;font-size:9,8pt;&quot;&gt;&lt;span style=&quot;color:#000000;&quot;&gt;[ifSearched &lt;/span&gt;&amp;amp;&amp;amp; !&lt;span style=&quot;color:#000000;&quot;&gt;hasResults]&lt;/span&gt;&lt;/pre&gt;&lt;/div&gt;" style="text;html=1;align=center;verticalAlign=middle;whiteSpace=wrap;rounded=0;" vertex="1" parent="1">
          <mxGeometry x="6820" y="5865" width="200" height="30" as="geometry" />
        </mxCell>
        <mxCell id="6t0K0k1m3wz6Nv79OAPZ-158" value="&lt;div style=&quot;color: rgb(8, 8, 8);&quot;&gt;&lt;pre style=&quot;font-family: &amp;quot;JetBrains Mono&amp;quot;, monospace;&quot;&gt;&lt;span&gt;&lt;span style=&quot;color: rgb(0, 51, 179);&quot;&gt;new &lt;/span&gt;JTableWithEmptyMessage(&lt;span style=&quot;color: rgb(135, 16, 148);&quot;&gt;tableModel&lt;/span&gt;, &lt;span style=&quot;color: rgb(6, 125, 23);&quot;&gt;&quot;Nessun risultato per i parametri di ricerca impostati&quot;&lt;/span&gt;)&lt;/span&gt;&lt;/pre&gt;&lt;/div&gt;" style="text;html=1;align=center;verticalAlign=middle;whiteSpace=wrap;rounded=0;" vertex="1" parent="1">
          <mxGeometry x="6960" y="5930" width="680" height="30" as="geometry" />
        </mxCell>
        <mxCell id="6t0K0k1m3wz6Nv79OAPZ-159" value="&lt;div style=&quot;background-color:#ffffff;color:#080808&quot;&gt;&lt;pre style=&quot;font-family:&#39;JetBrains Mono&#39;,monospace;font-size:9,8pt;&quot;&gt;another&lt;/pre&gt;&lt;pre style=&quot;font-family:&#39;JetBrains Mono&#39;,monospace;font-size:9,8pt;&quot;&gt;JTableWithEmptyMessage&lt;/pre&gt;&lt;/div&gt;" style="rounded=0;whiteSpace=wrap;html=1;" vertex="1" parent="1">
          <mxGeometry x="7640" y="5880" width="160" height="160" as="geometry" />
        </mxCell>
        <mxCell id="6t0K0k1m3wz6Nv79OAPZ-160" value="" style="endArrow=classic;html=1;rounded=0;exitX=0;exitY=0.5;exitDx=0;exitDy=0;entryX=0;entryY=0.5;entryDx=0;entryDy=0;" edge="1" parent="1" target="6t0K0k1m3wz6Nv79OAPZ-159">
          <mxGeometry width="50" height="50" relative="1" as="geometry">
            <mxPoint x="6959.995757575758" y="5959.7" as="sourcePoint" />
            <mxPoint x="7620" y="5980" as="targetPoint" />
          </mxGeometry>
        </mxCell>
        <mxCell id="6t0K0k1m3wz6Nv79OAPZ-162" value="" style="rounded=0;whiteSpace=wrap;html=1;" vertex="1" parent="1">
          <mxGeometry x="6920" y="6160" width="80" height="80" as="geometry" />
        </mxCell>
        <mxCell id="6t0K0k1m3wz6Nv79OAPZ-163" value="" style="endArrow=classic;html=1;rounded=0;" edge="1" parent="1">
          <mxGeometry width="50" height="50" relative="1" as="geometry">
            <mxPoint x="6960" y="6120" as="sourcePoint" />
            <mxPoint x="7000" y="6160" as="targetPoint" />
            <Array as="points">
              <mxPoint x="7040" y="6120" />
              <mxPoint x="7040" y="6160" />
            </Array>
          </mxGeometry>
        </mxCell>
        <mxCell id="6t0K0k1m3wz6Nv79OAPZ-164" value="&lt;div style=&quot;color: rgb(8, 8, 8);&quot;&gt;&lt;pre style=&quot;font-family: &amp;quot;JetBrains Mono&amp;quot;, monospace;&quot;&gt;&lt;span&gt;setTableApperance()&lt;/span&gt;&lt;/pre&gt;&lt;/div&gt;" style="text;html=1;align=center;verticalAlign=middle;whiteSpace=wrap;rounded=0;" vertex="1" parent="1">
          <mxGeometry x="7040" y="6130" width="130" height="20" as="geometry" />
        </mxCell>
        <mxCell id="6t0K0k1m3wz6Nv79OAPZ-165" value="" style="endArrow=classic;html=1;rounded=0;entryX=1.011;entryY=0.889;entryDx=0;entryDy=0;entryPerimeter=0;dashed=1;" edge="1" parent="1">
          <mxGeometry width="50" height="50" relative="1" as="geometry">
            <mxPoint x="7000" y="6240" as="sourcePoint" />
            <mxPoint x="6961" y="6280" as="targetPoint" />
            <Array as="points">
              <mxPoint x="7040" y="6240" />
              <mxPoint x="7040" y="6280" />
            </Array>
          </mxGeometry>
        </mxCell>
        <mxCell id="6t0K0k1m3wz6Nv79OAPZ-166" value="void" style="text;html=1;align=center;verticalAlign=middle;whiteSpace=wrap;rounded=0;" vertex="1" parent="1">
          <mxGeometry x="7040" y="6250" width="40" height="20" as="geometry" />
        </mxCell>
        <mxCell id="6t0K0k1m3wz6Nv79OAPZ-167" value="" style="endArrow=classic;html=1;rounded=0;exitX=0;exitY=1;exitDx=0;exitDy=0;dashed=1;entryX=1.001;entryY=0.966;entryDx=0;entryDy=0;entryPerimeter=0;" edge="1" parent="1" source="6t0K0k1m3wz6Nv79OAPZ-154" target="6t0K0k1m3wz6Nv79OAPZ-37">
          <mxGeometry width="50" height="50" relative="1" as="geometry">
            <mxPoint x="3840" y="6400" as="sourcePoint" />
            <mxPoint x="530" y="6400" as="targetPoint" />
          </mxGeometry>
        </mxCell>
        <mxCell id="6t0K0k1m3wz6Nv79OAPZ-169" value="" style="endArrow=classic;html=1;rounded=0;exitX=1;exitY=1;exitDx=0;exitDy=0;dashed=1;" edge="1" parent="1" source="6t0K0k1m3wz6Nv79OAPZ-37">
          <mxGeometry width="50" height="50" relative="1" as="geometry">
            <mxPoint x="511" y="6480" as="sourcePoint" />
            <mxPoint x="480" y="6520" as="targetPoint" />
            <Array as="points">
              <mxPoint x="560" y="6480" />
              <mxPoint x="560" y="6520" />
            </Array>
          </mxGeometry>
        </mxCell>
        <mxCell id="6t0K0k1m3wz6Nv79OAPZ-171" value="void" style="text;html=1;align=center;verticalAlign=middle;whiteSpace=wrap;rounded=0;" vertex="1" parent="1">
          <mxGeometry x="560" y="6480" width="40" height="40" as="geometry" />
        </mxCell>
        <mxCell id="6t0K0k1m3wz6Nv79OAPZ-172" value="[else]" style="text;html=1;align=center;verticalAlign=middle;whiteSpace=wrap;rounded=0;" vertex="1" parent="1">
          <mxGeometry x="280" y="1340" width="80" height="40" as="geometry" />
        </mxCell>
        <mxCell id="6t0K0k1m3wz6Nv79OAPZ-175" value="" style="endArrow=none;dashed=1;html=1;rounded=0;" edge="1" parent="1">
          <mxGeometry width="50" height="50" relative="1" as="geometry">
            <mxPoint x="200" y="1320" as="sourcePoint" />
            <mxPoint x="5320" y="1320" as="targetPoint" />
          </mxGeometry>
        </mxCell>
        <mxCell id="6t0K0k1m3wz6Nv79OAPZ-176" value="&lt;div style=&quot;color: rgb(8, 8, 8);&quot;&gt;&lt;pre style=&quot;font-family: &amp;quot;JetBrains Mono&amp;quot;, monospace;&quot;&gt;&lt;span&gt;getFlightController()&lt;/span&gt;&lt;/pre&gt;&lt;/div&gt;" style="text;html=1;align=center;verticalAlign=middle;whiteSpace=wrap;rounded=0;" vertex="1" parent="1">
          <mxGeometry x="521" y="1360" width="160" height="40" as="geometry" />
        </mxCell>
        <mxCell id="6t0K0k1m3wz6Nv79OAPZ-177" value="" style="rounded=0;whiteSpace=wrap;html=1;" vertex="1" parent="1">
          <mxGeometry x="720" y="1400" width="80" height="80" as="geometry" />
        </mxCell>
        <mxCell id="6t0K0k1m3wz6Nv79OAPZ-178" value="" style="endArrow=classic;html=1;rounded=0;entryX=0;entryY=0;entryDx=0;entryDy=0;" edge="1" parent="1" target="6t0K0k1m3wz6Nv79OAPZ-177">
          <mxGeometry width="50" height="50" relative="1" as="geometry">
            <mxPoint x="480" y="1400" as="sourcePoint" />
            <mxPoint x="699.9999999999998" y="1400" as="targetPoint" />
          </mxGeometry>
        </mxCell>
        <mxCell id="6t0K0k1m3wz6Nv79OAPZ-179" value="aFlightController" style="text;html=1;align=center;verticalAlign=middle;whiteSpace=wrap;rounded=0;" vertex="1" parent="1">
          <mxGeometry x="541" y="1450" width="120" height="30" as="geometry" />
        </mxCell>
        <mxCell id="6t0K0k1m3wz6Nv79OAPZ-180" value="" style="endArrow=classic;html=1;rounded=0;exitX=0;exitY=1;exitDx=0;exitDy=0;dashed=1;" edge="1" parent="1" source="6t0K0k1m3wz6Nv79OAPZ-177">
          <mxGeometry width="50" height="50" relative="1" as="geometry">
            <mxPoint x="689.9999999999998" y="1480" as="sourcePoint" />
            <mxPoint x="480" y="1480" as="targetPoint" />
          </mxGeometry>
        </mxCell>
        <mxCell id="6t0K0k1m3wz6Nv79OAPZ-181" value="aFlightController" style="whiteSpace=wrap;html=1;aspect=fixed;" vertex="1" parent="1">
          <mxGeometry x="2440" y="-120" width="160" height="160" as="geometry" />
        </mxCell>
        <mxCell id="6t0K0k1m3wz6Nv79OAPZ-182" value="" style="endArrow=classic;html=1;rounded=0;" edge="1" parent="1">
          <mxGeometry width="50" height="50" relative="1" as="geometry">
            <mxPoint x="480" y="1560" as="sourcePoint" />
            <mxPoint x="2480" y="1560" as="targetPoint" />
          </mxGeometry>
        </mxCell>
        <mxCell id="6t0K0k1m3wz6Nv79OAPZ-183" value="" style="endArrow=none;dashed=1;html=1;rounded=0;entryX=0.5;entryY=1;entryDx=0;entryDy=0;" edge="1" parent="1" target="6t0K0k1m3wz6Nv79OAPZ-181">
          <mxGeometry width="50" height="50" relative="1" as="geometry">
            <mxPoint x="2520" y="1560" as="sourcePoint" />
            <mxPoint x="2530" y="300" as="targetPoint" />
          </mxGeometry>
        </mxCell>
        <mxCell id="6t0K0k1m3wz6Nv79OAPZ-185" value="" style="rounded=0;whiteSpace=wrap;html=1;" vertex="1" parent="1">
          <mxGeometry x="2480" y="1560" width="80" height="2440" as="geometry" />
        </mxCell>
        <mxCell id="6t0K0k1m3wz6Nv79OAPZ-186" value="&lt;div style=&quot;color: rgb(8, 8, 8);&quot;&gt;&lt;pre style=&quot;font-family: &amp;quot;JetBrains Mono&amp;quot;, monospace;&quot;&gt;&lt;span&gt;searchFlightCustomer(&lt;span style=&quot;color: rgb(0, 0, 0);&quot;&gt;origin&lt;/span&gt;, &lt;span style=&quot;color: rgb(0, 0, 0);&quot;&gt;destination&lt;/span&gt;, &lt;span style=&quot;color: rgb(0, 0, 0);&quot;&gt;dateBefore&lt;/span&gt;, &lt;span style=&quot;color: rgb(0, 0, 0);&quot;&gt;dateAfter&lt;/span&gt;, &lt;span style=&quot;color: rgb(0, 0, 0);&quot;&gt;timeBefore&lt;/span&gt;, &lt;span style=&quot;color: rgb(0, 0, 0);&quot;&gt;timeAfter&lt;/span&gt;, &lt;span style=&quot;color: rgb(135, 16, 148);&quot;&gt;ids&lt;/span&gt;, &lt;span style=&quot;color: rgb(135, 16, 148);&quot;&gt;companyNames&lt;/span&gt;, &lt;span style=&quot;color: rgb(135, 16, 148);&quot;&gt;dates&lt;/span&gt;, &lt;span style=&quot;color: rgb(135, 16, 148);&quot;&gt;departureTimes&lt;/span&gt;, &lt;span style=&quot;color: rgb(135, 16, 148);&quot;&gt;arrivalTimes&lt;/span&gt;, &lt;span style=&quot;color: rgb(135, 16, 148);&quot;&gt;delays&lt;/span&gt;, &lt;span style=&quot;color: rgb(135, 16, 148);&quot;&gt;status&lt;/span&gt;, &lt;span style=&quot;color: rgb(135, 16, 148);&quot;&gt;maxSeats&lt;/span&gt;, &lt;span style=&quot;color: rgb(135, 16, 148);&quot;&gt;freeSeats&lt;/span&gt;, &lt;span style=&quot;color: rgb(135, 16, 148);&quot;&gt;cities&lt;/span&gt;, &lt;span style=&quot;color: rgb(0, 0, 0);&quot;&gt;searchButton&lt;/span&gt;)&lt;/span&gt;&lt;/pre&gt;&lt;/div&gt;" style="text;html=1;align=center;verticalAlign=middle;whiteSpace=wrap;rounded=0;" vertex="1" parent="1">
          <mxGeometry x="800" y="1530" width="1360" height="30" as="geometry" />
        </mxCell>
        <mxCell id="6t0K0k1m3wz6Nv79OAPZ-187" value="" style="endArrow=classic;html=1;rounded=0;entryX=0;entryY=0.5;entryDx=0;entryDy=0;" edge="1" parent="1" target="6t0K0k1m3wz6Nv79OAPZ-102">
          <mxGeometry width="50" height="50" relative="1" as="geometry">
            <mxPoint x="2560" y="1719.8" as="sourcePoint" />
            <mxPoint x="2640" y="1719.8" as="targetPoint" />
          </mxGeometry>
        </mxCell>
        <mxCell id="6t0K0k1m3wz6Nv79OAPZ-188" value="&lt;div style=&quot;color: rgb(8, 8, 8);&quot;&gt;&lt;pre style=&quot;font-family: &amp;quot;JetBrains Mono&amp;quot;, monospace;&quot;&gt;&lt;span&gt;&lt;span style=&quot;color: rgb(0, 51, 179);&quot;&gt;new &lt;/span&gt;FlightDAOImpl()&lt;/span&gt;&lt;/pre&gt;&lt;/div&gt;" style="text;html=1;align=center;verticalAlign=middle;whiteSpace=wrap;rounded=0;" vertex="1" parent="1">
          <mxGeometry x="2680" y="1690" width="200" height="30" as="geometry" />
        </mxCell>
        <mxCell id="6t0K0k1m3wz6Nv79OAPZ-189" value="" style="shape=card;whiteSpace=wrap;html=1;rounded=0;strokeColor=default;align=center;verticalAlign=middle;fontFamily=Helvetica;fontSize=12;fontColor=default;fillColor=default;rotation=-180;size=20;" vertex="1" parent="1">
          <mxGeometry x="2280" y="1640" width="115" height="80" as="geometry" />
        </mxCell>
        <mxCell id="6t0K0k1m3wz6Nv79OAPZ-190" value="ALT" style="text;html=1;align=center;verticalAlign=middle;whiteSpace=wrap;rounded=0;fontFamily=Helvetica;fontSize=12;fontColor=default;" vertex="1" parent="1">
          <mxGeometry x="2307.5" y="1665" width="60" height="30" as="geometry" />
        </mxCell>
        <mxCell id="6t0K0k1m3wz6Nv79OAPZ-191" value="" style="endArrow=classic;html=1;rounded=0;entryX=0;entryY=0;entryDx=0;entryDy=0;" edge="1" parent="1" target="6t0K0k1m3wz6Nv79OAPZ-103">
          <mxGeometry width="50" height="50" relative="1" as="geometry">
            <mxPoint x="2560" y="1880" as="sourcePoint" />
            <mxPoint x="2640" y="1880" as="targetPoint" />
          </mxGeometry>
        </mxCell>
        <mxCell id="6t0K0k1m3wz6Nv79OAPZ-192" value="&lt;div style=&quot;color: rgb(8, 8, 8);&quot;&gt;&lt;pre style=&quot;font-family: &amp;quot;JetBrains Mono&amp;quot;, monospace;&quot;&gt;&lt;span&gt;searchFlight(&lt;span style=&quot;color: rgb(0, 0, 0);&quot;&gt;departingCity&lt;/span&gt;, &lt;span style=&quot;color: rgb(0, 0, 0);&quot;&gt;arrivingCity&lt;/span&gt;, &lt;span style=&quot;color: rgb(0, 0, 0);&quot;&gt;initialDate&lt;/span&gt;, &lt;span style=&quot;color: rgb(0, 0, 0);&quot;&gt;finalDate&lt;/span&gt;, &lt;span style=&quot;color: rgb(0, 0, 0);&quot;&gt;initialTime&lt;/span&gt;,&lt;/span&gt;&lt;/pre&gt;&lt;pre style=&quot;font-family: &amp;quot;JetBrains Mono&amp;quot;, monospace;&quot;&gt;&lt;span&gt;&lt;span style=&quot;color: rgb(0, 0, 0);&quot;&gt;finalTime&lt;/span&gt;, &lt;span style=&quot;color: rgb(0, 0, 0);&quot;&gt;ids&lt;/span&gt;, &lt;span style=&quot;color: rgb(0, 0, 0);&quot;&gt;companyNames&lt;/span&gt;, &lt;span style=&quot;color: rgb(0, 0, 0);&quot;&gt;dates&lt;/span&gt;, &lt;span style=&quot;color: rgb(0, 0, 0);&quot;&gt;departureTimes&lt;/span&gt;, &lt;span style=&quot;color: rgb(0, 0, 0);&quot;&gt;arrivalTimes&lt;/span&gt;, &lt;span style=&quot;color: rgb(0, 0, 0);&quot;&gt;delays&lt;/span&gt;,&lt;/span&gt;&lt;/pre&gt;&lt;pre style=&quot;font-family: &amp;quot;JetBrains Mono&amp;quot;, monospace;&quot;&gt;&lt;span&gt;&lt;span style=&quot;color: rgb(0, 0, 0);&quot;&gt;status&lt;/span&gt;, &lt;span style=&quot;color: rgb(0, 0, 0);&quot;&gt;maxSeats&lt;/span&gt;, &lt;span style=&quot;color: rgb(0, 0, 0);&quot;&gt;freeSeats&lt;/span&gt;, &lt;span style=&quot;color: rgb(0, 0, 0);&quot;&gt;cities&lt;/span&gt;, &lt;span style=&quot;color: rgb(0, 0, 0);&quot;&gt;types&lt;/span&gt;)&lt;/span&gt;&lt;/pre&gt;&lt;/div&gt;" style="text;html=1;align=center;verticalAlign=middle;whiteSpace=wrap;rounded=0;" vertex="1" parent="1">
          <mxGeometry x="2560" y="1800" width="520" height="80" as="geometry" />
        </mxCell>
        <mxCell id="6t0K0k1m3wz6Nv79OAPZ-193" value="" style="endArrow=classic;html=1;rounded=0;exitX=0;exitY=1;exitDx=0;exitDy=0;dashed=1;" edge="1" parent="1" source="6t0K0k1m3wz6Nv79OAPZ-103">
          <mxGeometry width="50" height="50" relative="1" as="geometry">
            <mxPoint x="2900" y="2920" as="sourcePoint" />
            <mxPoint x="2560" y="2920" as="targetPoint" />
          </mxGeometry>
        </mxCell>
        <mxCell id="6t0K0k1m3wz6Nv79OAPZ-194" value="void" style="text;html=1;align=center;verticalAlign=middle;whiteSpace=wrap;rounded=0;" vertex="1" parent="1">
          <mxGeometry x="2760" y="2890" width="80" height="30" as="geometry" />
        </mxCell>
        <mxCell id="6t0K0k1m3wz6Nv79OAPZ-196" value="&lt;div style=&quot;color: rgb(8, 8, 8);&quot;&gt;&lt;pre style=&quot;font-family: &amp;quot;JetBrains Mono&amp;quot;, monospace;&quot;&gt;&lt;span style=&quot;color: rgb(0, 0, 0);&quot;&gt;[SQLException sqle]&lt;/span&gt;&lt;/pre&gt;&lt;/div&gt;" style="text;html=1;align=center;verticalAlign=middle;whiteSpace=wrap;rounded=0;fontFamily=Helvetica;fontSize=12;fontColor=default;" vertex="1" parent="1">
          <mxGeometry x="2320" y="3000" width="160" height="40" as="geometry" />
        </mxCell>
        <mxCell id="6t0K0k1m3wz6Nv79OAPZ-197" value="" style="endArrow=none;dashed=1;html=1;rounded=0;" edge="1" parent="1">
          <mxGeometry width="50" height="50" relative="1" as="geometry">
            <mxPoint x="2280" y="3000" as="sourcePoint" />
            <mxPoint x="5280" y="3000" as="targetPoint" />
          </mxGeometry>
        </mxCell>
        <mxCell id="6t0K0k1m3wz6Nv79OAPZ-198" value="&lt;div style=&quot;color: rgb(8, 8, 8);&quot;&gt;&lt;pre style=&quot;font-family: &amp;quot;JetBrains Mono&amp;quot;, monospace;&quot;&gt;&lt;span&gt;FloatingMessage(&lt;span style=&quot;color: rgb(6, 125, 23);&quot;&gt;&quot;Errore nella connessione al Database!&quot;&lt;/span&gt;, &lt;span style=&quot;color: rgb(0, 0, 0);&quot;&gt;searchButton&lt;/span&gt;, &lt;span style=&quot;color: rgb(0, 0, 0);&quot;&gt;FloatingMessage&lt;/span&gt;.&lt;span style=&quot;color: rgb(135, 16, 148); font-style: italic;&quot;&gt;ERROR_MESSAGE&lt;/span&gt;)&lt;/span&gt;&lt;/pre&gt;&lt;/div&gt;" style="text;whiteSpace=wrap;html=1;align=center;verticalAlign=middle;" vertex="1" parent="1">
          <mxGeometry x="3080" y="3090" width="680" height="30" as="geometry" />
        </mxCell>
        <mxCell id="6t0K0k1m3wz6Nv79OAPZ-199" value="" style="endArrow=classic;html=1;rounded=0;entryX=0;entryY=0.5;entryDx=0;entryDy=0;" edge="1" parent="1" target="6t0K0k1m3wz6Nv79OAPZ-200">
          <mxGeometry width="50" height="50" relative="1" as="geometry">
            <mxPoint x="2560" y="3119.71" as="sourcePoint" />
            <mxPoint x="4270" y="3119.71" as="targetPoint" />
          </mxGeometry>
        </mxCell>
        <mxCell id="6t0K0k1m3wz6Nv79OAPZ-200" value="aFloatingMessage" style="whiteSpace=wrap;html=1;aspect=fixed;" vertex="1" parent="1">
          <mxGeometry x="4280" y="3040" width="160" height="160" as="geometry" />
        </mxCell>
        <mxCell id="6t0K0k1m3wz6Nv79OAPZ-201" value="" style="rounded=0;whiteSpace=wrap;html=1;" vertex="1" parent="1">
          <mxGeometry x="4320" y="3200" width="80" height="680" as="geometry" />
        </mxCell>
        <mxCell id="6t0K0k1m3wz6Nv79OAPZ-202" value="" style="rounded=0;whiteSpace=wrap;html=1;" vertex="1" parent="1">
          <mxGeometry x="4370" y="3280" width="70" height="80" as="geometry" />
        </mxCell>
        <mxCell id="6t0K0k1m3wz6Nv79OAPZ-203" value="" style="endArrow=classic;html=1;rounded=0;" edge="1" parent="1">
          <mxGeometry width="50" height="50" relative="1" as="geometry">
            <mxPoint x="4400" y="3240" as="sourcePoint" />
            <mxPoint x="4440" y="3280" as="targetPoint" />
            <Array as="points">
              <mxPoint x="4480" y="3240" />
              <mxPoint x="4480" y="3280" />
            </Array>
          </mxGeometry>
        </mxCell>
        <mxCell id="6t0K0k1m3wz6Nv79OAPZ-204" value="&lt;div style=&quot;color: rgb(8, 8, 8);&quot;&gt;&lt;pre style=&quot;font-family: &amp;quot;JetBrains Mono&amp;quot;, monospace;&quot;&gt;&lt;span&gt;setWindow(&lt;span style=&quot;color: rgb(0, 0, 0);&quot;&gt;callingButton&lt;/span&gt;)&lt;/span&gt;&lt;/pre&gt;&lt;/div&gt;" style="text;whiteSpace=wrap;html=1;align=center;" vertex="1" parent="1">
          <mxGeometry x="4480" y="3240" width="170" height="40" as="geometry" />
        </mxCell>
        <mxCell id="6t0K0k1m3wz6Nv79OAPZ-205" value="" style="endArrow=classic;html=1;rounded=0;dashed=1;" edge="1" parent="1">
          <mxGeometry width="50" height="50" relative="1" as="geometry">
            <mxPoint x="4440" y="3360" as="sourcePoint" />
            <mxPoint x="4400" y="3400" as="targetPoint" />
            <Array as="points">
              <mxPoint x="4480" y="3360" />
              <mxPoint x="4480" y="3400" />
            </Array>
          </mxGeometry>
        </mxCell>
        <mxCell id="6t0K0k1m3wz6Nv79OAPZ-206" value="void" style="text;html=1;align=center;verticalAlign=middle;whiteSpace=wrap;rounded=0;fontFamily=Helvetica;fontSize=12;fontColor=default;" vertex="1" parent="1">
          <mxGeometry x="4480" y="3370" width="40" height="30" as="geometry" />
        </mxCell>
        <mxCell id="6t0K0k1m3wz6Nv79OAPZ-207" value="" style="rounded=0;whiteSpace=wrap;html=1;" vertex="1" parent="1">
          <mxGeometry x="4370" y="3480" width="70" height="200" as="geometry" />
        </mxCell>
        <mxCell id="6t0K0k1m3wz6Nv79OAPZ-208" value="" style="endArrow=classic;html=1;rounded=0;" edge="1" parent="1">
          <mxGeometry width="50" height="50" relative="1" as="geometry">
            <mxPoint x="4400" y="3440" as="sourcePoint" />
            <mxPoint x="4440" y="3480" as="targetPoint" />
            <Array as="points">
              <mxPoint x="4480" y="3440" />
              <mxPoint x="4480" y="3480" />
            </Array>
          </mxGeometry>
        </mxCell>
        <mxCell id="6t0K0k1m3wz6Nv79OAPZ-209" value="&lt;div style=&quot;color: rgb(8, 8, 8);&quot;&gt;&lt;pre style=&quot;font-family: &amp;quot;JetBrains Mono&amp;quot;, monospace;&quot;&gt;&lt;font color=&quot;#080808&quot;&gt;setPanel(&lt;/font&gt;msg, messageType&lt;font color=&quot;#080808&quot;&gt;)&lt;/font&gt;&lt;/pre&gt;&lt;/div&gt;" style="text;whiteSpace=wrap;html=1;align=center;" vertex="1" parent="1">
          <mxGeometry x="4480" y="3440" width="180" height="40" as="geometry" />
        </mxCell>
        <mxCell id="6t0K0k1m3wz6Nv79OAPZ-210" value="" style="endArrow=classic;html=1;rounded=0;dashed=1;" edge="1" parent="1">
          <mxGeometry width="50" height="50" relative="1" as="geometry">
            <mxPoint x="4440" y="3680" as="sourcePoint" />
            <mxPoint x="4400" y="3720" as="targetPoint" />
            <Array as="points">
              <mxPoint x="4480" y="3680" />
              <mxPoint x="4480" y="3720" />
            </Array>
          </mxGeometry>
        </mxCell>
        <mxCell id="6t0K0k1m3wz6Nv79OAPZ-211" value="void" style="text;html=1;align=center;verticalAlign=middle;whiteSpace=wrap;rounded=0;fontFamily=Helvetica;fontSize=12;fontColor=default;" vertex="1" parent="1">
          <mxGeometry x="4480" y="3690" width="40" height="30" as="geometry" />
        </mxCell>
        <mxCell id="6t0K0k1m3wz6Nv79OAPZ-212" value="aRoundedPanel" style="whiteSpace=wrap;html=1;aspect=fixed;" vertex="1" parent="1">
          <mxGeometry x="4760" y="3520" width="160" height="160" as="geometry" />
        </mxCell>
        <mxCell id="6t0K0k1m3wz6Nv79OAPZ-213" value="" style="endArrow=classic;html=1;rounded=0;exitX=1.03;exitY=0.6;exitDx=0;exitDy=0;exitPerimeter=0;entryX=0;entryY=0.5;entryDx=0;entryDy=0;" edge="1" parent="1" target="6t0K0k1m3wz6Nv79OAPZ-212">
          <mxGeometry width="50" height="50" relative="1" as="geometry">
            <mxPoint x="4440" y="3599.86" as="sourcePoint" />
            <mxPoint x="4757.9" y="3599.86" as="targetPoint" />
          </mxGeometry>
        </mxCell>
        <mxCell id="6t0K0k1m3wz6Nv79OAPZ-214" value="&lt;div style=&quot;color: rgb(8, 8, 8);&quot;&gt;&lt;pre style=&quot;font-family: &amp;quot;JetBrains Mono&amp;quot;, monospace;&quot;&gt;&lt;div style=&quot;background-color: rgb(255, 255, 255);&quot;&gt;&lt;pre style=&quot;font-family:&#39;JetBrains Mono&#39;,monospace;font-size:9,8pt;&quot;&gt;&lt;span style=&quot;color:#0033b3;&quot;&gt;new &lt;/span&gt;RoundedPanel(&lt;span style=&quot;color:#0033b3;&quot;&gt;new &lt;/span&gt;BorderLayout())&lt;/pre&gt;&lt;/div&gt;&lt;/pre&gt;&lt;/div&gt;" style="text;html=1;align=center;verticalAlign=middle;whiteSpace=wrap;rounded=0;" vertex="1" parent="1">
          <mxGeometry x="4480" y="3570" width="240" height="30" as="geometry" />
        </mxCell>
        <mxCell id="6t0K0k1m3wz6Nv79OAPZ-215" value="&lt;div style=&quot;color: rgb(8, 8, 8);&quot;&gt;&lt;pre style=&quot;font-family: &amp;quot;JetBrains Mono&amp;quot;, monospace;&quot;&gt;&lt;span&gt;&lt;span style=&quot;color: rgb(0, 51, 179);&quot;&gt;new &lt;/span&gt;DisposeTimers(&lt;span style=&quot;color: rgb(135, 16, 148);&quot;&gt;messageWindow&lt;/span&gt;)&lt;/span&gt;&lt;/pre&gt;&lt;/div&gt;" style="text;html=1;align=center;verticalAlign=middle;whiteSpace=wrap;rounded=0;" vertex="1" parent="1">
          <mxGeometry x="4600" y="3770" width="280" height="30" as="geometry" />
        </mxCell>
        <mxCell id="6t0K0k1m3wz6Nv79OAPZ-216" value="aDisposeTimers" style="whiteSpace=wrap;html=1;aspect=fixed;" vertex="1" parent="1">
          <mxGeometry x="5080" y="3720" width="160" height="160" as="geometry" />
        </mxCell>
        <mxCell id="6t0K0k1m3wz6Nv79OAPZ-217" value="" style="endArrow=classic;html=1;rounded=0;exitX=1.03;exitY=0.6;exitDx=0;exitDy=0;exitPerimeter=0;entryX=0;entryY=0.5;entryDx=0;entryDy=0;" edge="1" parent="1" target="6t0K0k1m3wz6Nv79OAPZ-216">
          <mxGeometry width="50" height="50" relative="1" as="geometry">
            <mxPoint x="4400" y="3800" as="sourcePoint" />
            <mxPoint x="4720" y="3800.14" as="targetPoint" />
          </mxGeometry>
        </mxCell>
        <mxCell id="6t0K0k1m3wz6Nv79OAPZ-218" value="" style="endArrow=classic;html=1;rounded=0;exitX=0;exitY=1;exitDx=0;exitDy=0;dashed=1;" edge="1" parent="1" source="6t0K0k1m3wz6Nv79OAPZ-201">
          <mxGeometry width="50" height="50" relative="1" as="geometry">
            <mxPoint x="4290.000000000001" y="3880" as="sourcePoint" />
            <mxPoint x="2560" y="3880" as="targetPoint" />
          </mxGeometry>
        </mxCell>
        <mxCell id="6t0K0k1m3wz6Nv79OAPZ-221" value="" style="endArrow=classic;html=1;rounded=0;entryX=0.143;entryY=0.978;entryDx=0;entryDy=0;entryPerimeter=0;exitX=0;exitY=1;exitDx=0;exitDy=0;dashed=1;" edge="1" parent="1" source="6t0K0k1m3wz6Nv79OAPZ-185">
          <mxGeometry width="50" height="50" relative="1" as="geometry">
            <mxPoint x="2230" y="4000" as="sourcePoint" />
            <mxPoint x="479.99999999999983" y="4000" as="targetPoint" />
          </mxGeometry>
        </mxCell>
        <mxCell id="6t0K0k1m3wz6Nv79OAPZ-223" value="void" style="text;html=1;align=center;verticalAlign=middle;whiteSpace=wrap;rounded=0;" vertex="1" parent="1">
          <mxGeometry x="1440" y="3970" width="80" height="30" as="geometry" />
        </mxCell>
        <mxCell id="6t0K0k1m3wz6Nv79OAPZ-225" value="" style="endArrow=classic;html=1;rounded=0;exitX=0;exitY=1;exitDx=0;exitDy=0;entryX=1.013;entryY=0.994;entryDx=0;entryDy=0;entryPerimeter=0;dashed=1;" edge="1" parent="1" source="77gOGScripnuddrP19CJ-4">
          <mxGeometry width="50" height="50" relative="1" as="geometry">
            <mxPoint x="398.96" y="6559.999999999999" as="sourcePoint" />
            <mxPoint x="-3.6415315207705135e-14" y="6560.64" as="targetPoint" />
          </mxGeometry>
        </mxCell>
        <mxCell id="6t0K0k1m3wz6Nv79OAPZ-226" value="void" style="text;html=1;align=center;verticalAlign=middle;whiteSpace=wrap;rounded=0;" vertex="1" parent="1">
          <mxGeometry x="160" y="6530" width="80" height="30" as="geometry" />
        </mxCell>
        <mxCell id="6t0K0k1m3wz6Nv79OAPZ-227" value="" style="endArrow=none;dashed=1;html=1;rounded=0;entryX=0.5;entryY=1;entryDx=0;entryDy=0;" edge="1" parent="1" target="77gOGScripnuddrP19CJ-2">
          <mxGeometry width="50" height="50" relative="1" as="geometry">
            <mxPoint x="-40" y="6680" as="sourcePoint" />
            <mxPoint x="150" y="6580" as="targetPoint" />
          </mxGeometry>
        </mxCell>
        <mxCell id="6t0K0k1m3wz6Nv79OAPZ-228" value="" style="endArrow=none;dashed=1;html=1;rounded=0;entryX=0.5;entryY=1;entryDx=0;entryDy=0;" edge="1" parent="1" target="77gOGScripnuddrP19CJ-4">
          <mxGeometry width="50" height="50" relative="1" as="geometry">
            <mxPoint x="440" y="6680" as="sourcePoint" />
            <mxPoint x="-40" y="6550" as="targetPoint" />
          </mxGeometry>
        </mxCell>
        <mxCell id="6t0K0k1m3wz6Nv79OAPZ-229" value="" style="endArrow=none;dashed=1;html=1;dashPattern=1 3;strokeWidth=2;rounded=0;" edge="1" parent="1">
          <mxGeometry width="50" height="50" relative="1" as="geometry">
            <mxPoint x="1400" y="6680" as="sourcePoint" />
            <mxPoint x="1400" y="1280" as="targetPoint" />
          </mxGeometry>
        </mxCell>
        <mxCell id="6t0K0k1m3wz6Nv79OAPZ-230" value="" style="endArrow=none;dashed=1;html=1;rounded=0;entryX=0.5;entryY=1;entryDx=0;entryDy=0;" edge="1" parent="1" target="6t0K0k1m3wz6Nv79OAPZ-24">
          <mxGeometry width="50" height="50" relative="1" as="geometry">
            <mxPoint x="1880" y="6676.666666666667" as="sourcePoint" />
            <mxPoint x="1880" y="320" as="targetPoint" />
          </mxGeometry>
        </mxCell>
        <mxCell id="6t0K0k1m3wz6Nv79OAPZ-231" value="" style="endArrow=none;dashed=1;html=1;rounded=0;entryX=0.5;entryY=1;entryDx=0;entryDy=0;" edge="1" parent="1" target="6t0K0k1m3wz6Nv79OAPZ-30">
          <mxGeometry width="50" height="50" relative="1" as="geometry">
            <mxPoint x="2200" y="6680" as="sourcePoint" />
            <mxPoint x="1660" y="1810" as="targetPoint" />
          </mxGeometry>
        </mxCell>
        <mxCell id="6t0K0k1m3wz6Nv79OAPZ-232" value="" style="endArrow=none;dashed=1;html=1;rounded=0;entryX=0.5;entryY=1;entryDx=0;entryDy=0;" edge="1" parent="1" target="6t0K0k1m3wz6Nv79OAPZ-185">
          <mxGeometry width="50" height="50" relative="1" as="geometry">
            <mxPoint x="2520" y="6682.105263157895" as="sourcePoint" />
            <mxPoint x="2730" y="4210" as="targetPoint" />
          </mxGeometry>
        </mxCell>
        <mxCell id="6t0K0k1m3wz6Nv79OAPZ-233" value="" style="endArrow=none;dashed=1;html=1;rounded=0;entryX=0.5;entryY=1;entryDx=0;entryDy=0;" edge="1" parent="1" target="6t0K0k1m3wz6Nv79OAPZ-103">
          <mxGeometry width="50" height="50" relative="1" as="geometry">
            <mxPoint x="3080" y="6682.666666666667" as="sourcePoint" />
            <mxPoint x="3080" y="2950" as="targetPoint" />
          </mxGeometry>
        </mxCell>
        <mxCell id="6t0K0k1m3wz6Nv79OAPZ-234" value="" style="endArrow=none;dashed=1;html=1;rounded=0;entryX=0.5;entryY=1;entryDx=0;entryDy=0;exitX=0.5;exitY=0;exitDx=0;exitDy=0;" edge="1" parent="1" source="6t0K0k1m3wz6Nv79OAPZ-127" target="6t0K0k1m3wz6Nv79OAPZ-123">
          <mxGeometry width="50" height="50" relative="1" as="geometry">
            <mxPoint x="3400" y="2870" as="sourcePoint" />
            <mxPoint x="3450" y="2820" as="targetPoint" />
          </mxGeometry>
        </mxCell>
        <mxCell id="6t0K0k1m3wz6Nv79OAPZ-235" value="" style="endArrow=none;dashed=1;html=1;rounded=0;exitX=0.5;exitY=1;exitDx=0;exitDy=0;" edge="1" parent="1" source="6t0K0k1m3wz6Nv79OAPZ-127">
          <mxGeometry width="50" height="50" relative="1" as="geometry">
            <mxPoint x="3890" y="2890" as="sourcePoint" />
            <mxPoint x="3560" y="6685.714285714285" as="targetPoint" />
          </mxGeometry>
        </mxCell>
        <mxCell id="6t0K0k1m3wz6Nv79OAPZ-236" value="" style="endArrow=none;dashed=1;html=1;rounded=0;entryX=0.5;entryY=1;entryDx=0;entryDy=0;" edge="1" parent="1" target="6t0K0k1m3wz6Nv79OAPZ-117">
          <mxGeometry width="50" height="50" relative="1" as="geometry">
            <mxPoint x="4040" y="6682" as="sourcePoint" />
            <mxPoint x="4010" y="2740" as="targetPoint" />
          </mxGeometry>
        </mxCell>
        <mxCell id="6t0K0k1m3wz6Nv79OAPZ-237" value="" style="endArrow=none;dashed=1;html=1;rounded=0;entryX=0.5;entryY=1;entryDx=0;entryDy=0;" edge="1" parent="1" target="6t0K0k1m3wz6Nv79OAPZ-201">
          <mxGeometry width="50" height="50" relative="1" as="geometry">
            <mxPoint x="4360" y="6681.428571428572" as="sourcePoint" />
            <mxPoint x="4540" y="3900" as="targetPoint" />
          </mxGeometry>
        </mxCell>
        <mxCell id="6t0K0k1m3wz6Nv79OAPZ-238" value="" style="endArrow=none;dashed=1;html=1;rounded=0;entryX=0.5;entryY=1;entryDx=0;entryDy=0;" edge="1" parent="1" target="6t0K0k1m3wz6Nv79OAPZ-212">
          <mxGeometry width="50" height="50" relative="1" as="geometry">
            <mxPoint x="4840" y="6680" as="sourcePoint" />
            <mxPoint x="4880" y="3830" as="targetPoint" />
          </mxGeometry>
        </mxCell>
        <mxCell id="6t0K0k1m3wz6Nv79OAPZ-239" value="" style="endArrow=none;dashed=1;html=1;rounded=0;entryX=0.5;entryY=1;entryDx=0;entryDy=0;" edge="1" parent="1" target="6t0K0k1m3wz6Nv79OAPZ-216">
          <mxGeometry width="50" height="50" relative="1" as="geometry">
            <mxPoint x="5160" y="6680.952380952381" as="sourcePoint" />
            <mxPoint x="4980" y="3990" as="targetPoint" />
          </mxGeometry>
        </mxCell>
        <mxCell id="6t0K0k1m3wz6Nv79OAPZ-240" value="" style="endArrow=none;dashed=1;html=1;rounded=0;entryX=0.5;entryY=1;entryDx=0;entryDy=0;" edge="1" parent="1" target="6t0K0k1m3wz6Nv79OAPZ-46">
          <mxGeometry width="50" height="50" relative="1" as="geometry">
            <mxPoint x="5480" y="6681" as="sourcePoint" />
            <mxPoint x="5550" y="4170" as="targetPoint" />
          </mxGeometry>
        </mxCell>
        <mxCell id="6t0K0k1m3wz6Nv79OAPZ-241" value="" style="endArrow=none;dashed=1;html=1;rounded=0;entryX=0.5;entryY=1;entryDx=0;entryDy=0;" edge="1" parent="1" target="6t0K0k1m3wz6Nv79OAPZ-59">
          <mxGeometry width="50" height="50" relative="1" as="geometry">
            <mxPoint x="5800" y="6680" as="sourcePoint" />
            <mxPoint x="6010" y="5270" as="targetPoint" />
          </mxGeometry>
        </mxCell>
        <mxCell id="6t0K0k1m3wz6Nv79OAPZ-242" value="" style="endArrow=none;dashed=1;html=1;rounded=0;entryX=0.5;entryY=1;entryDx=0;entryDy=0;" edge="1" parent="1" target="6t0K0k1m3wz6Nv79OAPZ-60">
          <mxGeometry width="50" height="50" relative="1" as="geometry">
            <mxPoint x="6280" y="6682" as="sourcePoint" />
            <mxPoint x="6050" y="5010" as="targetPoint" />
          </mxGeometry>
        </mxCell>
        <mxCell id="6t0K0k1m3wz6Nv79OAPZ-243" value="" style="endArrow=none;dashed=1;html=1;rounded=0;exitX=0.5;exitY=1;exitDx=0;exitDy=0;" edge="1" parent="1" source="6t0K0k1m3wz6Nv79OAPZ-68">
          <mxGeometry width="50" height="50" relative="1" as="geometry">
            <mxPoint x="5800" y="5850" as="sourcePoint" />
            <mxPoint x="6600" y="6680" as="targetPoint" />
          </mxGeometry>
        </mxCell>
        <mxCell id="6t0K0k1m3wz6Nv79OAPZ-244" value="" style="endArrow=none;dashed=1;html=1;rounded=0;entryX=0.5;entryY=1;entryDx=0;entryDy=0;" edge="1" parent="1" target="6t0K0k1m3wz6Nv79OAPZ-154">
          <mxGeometry width="50" height="50" relative="1" as="geometry">
            <mxPoint x="6920" y="6670" as="sourcePoint" />
            <mxPoint x="6430" y="6210" as="targetPoint" />
          </mxGeometry>
        </mxCell>
        <mxCell id="6t0K0k1m3wz6Nv79OAPZ-245" value="" style="endArrow=none;dashed=1;html=1;rounded=0;entryX=0.5;entryY=1;entryDx=0;entryDy=0;" edge="1" parent="1" target="6t0K0k1m3wz6Nv79OAPZ-151">
          <mxGeometry width="50" height="50" relative="1" as="geometry">
            <mxPoint x="7400" y="6680" as="sourcePoint" />
            <mxPoint x="6930" y="6210" as="targetPoint" />
          </mxGeometry>
        </mxCell>
        <mxCell id="6t0K0k1m3wz6Nv79OAPZ-246" value="" style="endArrow=none;dashed=1;html=1;rounded=0;entryX=0.5;entryY=1;entryDx=0;entryDy=0;" edge="1" parent="1" target="6t0K0k1m3wz6Nv79OAPZ-159">
          <mxGeometry width="50" height="50" relative="1" as="geometry">
            <mxPoint x="7720" y="6680" as="sourcePoint" />
            <mxPoint x="6930" y="6210" as="targetPoint" />
          </mxGeometry>
        </mxCell>
        <mxCell id="6t0K0k1m3wz6Nv79OAPZ-161" value="" style="rounded=0;whiteSpace=wrap;html=1;fillColor=none;" vertex="1" parent="1">
          <mxGeometry x="6680" y="5840" width="1160" height="240" as="geometry" />
        </mxCell>
        <mxCell id="6t0K0k1m3wz6Nv79OAPZ-71" value="" style="rounded=0;whiteSpace=wrap;html=1;fillColor=none;" vertex="1" parent="1">
          <mxGeometry x="5560" y="4880" width="1160" height="240" as="geometry" />
        </mxCell>
        <mxCell id="6t0K0k1m3wz6Nv79OAPZ-168" value="" style="rounded=0;whiteSpace=wrap;html=1;fillColor=none;" vertex="1" parent="1">
          <mxGeometry x="240" y="4480" width="7640" height="1960" as="geometry" />
        </mxCell>
        <mxCell id="6t0K0k1m3wz6Nv79OAPZ-132" value="" style="rounded=0;whiteSpace=wrap;html=1;strokeColor=default;align=center;verticalAlign=middle;fontFamily=Helvetica;fontSize=12;fontColor=default;fillColor=none;" vertex="1" parent="1">
          <mxGeometry x="2880" y="2040" width="1280" height="800" as="geometry" />
        </mxCell>
        <mxCell id="6t0K0k1m3wz6Nv79OAPZ-219" value="" style="rounded=0;whiteSpace=wrap;html=1;fillColor=none;" vertex="1" parent="1">
          <mxGeometry x="2280" y="1640" width="3000" height="2320" as="geometry" />
        </mxCell>
        <mxCell id="6t0K0k1m3wz6Nv79OAPZ-220" value="" style="rounded=0;whiteSpace=wrap;html=1;fillColor=none;" vertex="1" parent="1">
          <mxGeometry x="200" y="400" width="5120" height="3640" as="geometry" />
        </mxCell>
      </root>
    </mxGraphModel>
  </diagram>
</mxfile>
